<svg width="16" height="20" viewBox="0 0 16 20" fill="none" xmlns="http://www.w3.org/2000/svg">
<path d="M12.3674 6.24273C8.7975 4.07082 10.4716 1.00531 10.5434 0.877891C10.6476 0.696563 10.6473 0.473477 10.5426 0.292461C10.4378 0.111445 10.2445 0 10.0354 0C8.19777 0 6.75878 0.522109 5.75843 1.55187C4.04908 3.31145 4.12838 6.05 4.16221 7.21945C4.16596 7.34898 4.1692 7.46094 4.1692 7.54406C4.1692 8.41234 4.3085 9.21395 4.43143 9.92117C4.51065 10.3769 4.57905 10.7705 4.59119 11.08C4.6042 11.4112 4.54373 11.4871 4.54115 11.4902C4.53252 11.5004 4.46065 11.5387 4.26631 11.5387C4.04467 11.5387 3.88127 11.4663 3.7365 11.3039C3.17103 10.6699 3.13193 8.93855 3.24005 7.99664C3.25939 7.83055 3.20685 7.66414 3.09564 7.5393C2.98447 7.41445 2.82525 7.34305 2.65806 7.34305C1.13676 7.34305 0 9.83086 0 12.0552C0 13.1009 0.210313 14.1252 0.62512 15.0998C1.02614 16.0419 1.59798 16.8922 2.32482 17.627C3.83857 19.1572 5.8344 20 7.94473 20C10.0635 20 12.0588 19.1691 13.5632 17.6605C15.0635 16.1559 15.8898 14.1651 15.8898 12.0552C15.8898 9.36289 13.7833 7.1041 12.3674 6.24273ZM7.94473 18.8281C4.2735 18.8281 1.17192 15.7265 1.17192 12.0552C1.17192 11.1623 1.38497 10.2251 1.75641 9.48387C1.84317 9.3107 1.9322 9.16215 2.02005 9.03699C2.02985 10.0037 2.18298 11.3214 2.86091 12.0828C3.22662 12.4934 3.7126 12.7105 4.26635 12.7105C4.78366 12.7105 5.17788 12.5537 5.43796 12.2445C5.92421 11.6664 5.77495 10.8077 5.58604 9.72047C5.47124 9.05992 5.34112 8.31121 5.34112 7.54402C5.34112 7.44391 5.33764 7.32418 5.33366 7.18547C5.30159 6.07773 5.23483 3.7727 6.59902 2.36844C7.2114 1.73801 8.06641 1.35434 9.14805 1.22305C9.02594 1.62852 8.92067 2.14324 8.9166 2.71957C8.90762 3.98941 9.39333 5.80508 11.7583 7.24391C12.9026 7.94004 14.718 9.8618 14.718 12.0552C14.7179 15.7898 11.6795 18.8281 7.94473 18.8281Z" fill="url(#paint0_linear_6280_2026)"/>
<defs>
<linearGradient id="paint0_linear_6280_2026" x1="17.7966" y1="7.7" x2="-0.636559" y2="12.4073" gradientUnits="userSpaceOnUse">
<stop stop-color="#D72339"/>
<stop offset="1" stop-color="#F23B51"/>
</linearGradient>
</defs>
</svg>
