<?xml version="1.0" standalone="no"?>
<!DOCTYPE svg PUBLIC "-//W3C//DTD SVG 1.1//EN" "http://www.w3.org/Graphics/SVG/1.1/DTD/svg11.dtd" >
<svg xmlns="http://www.w3.org/2000/svg">
<metadata>Generated by IcoMoon</metadata>
<defs>
<font id="planet-icon" horiz-adv-x="1024">
<font-face units-per-em="1024" ascent="960" descent="-64" />
<missing-glyph horiz-adv-x="1024" />
<glyph unicode="&#x20;" horiz-adv-x="512" d="" />
<glyph unicode="&#xe900;" glyph-name="head-circuit" d="M480 672c0 17.673 14.327 32 32 32s32-14.327 32-32c0-17.673-14.327-32-32-32v0c-17.673 0-32 14.327-32 32v0zM576 416c0-17.673 14.327-32 32-32s32 14.327 32 32c0 17.673-14.327 32-32 32v0c-17.673 0-32-14.327-32-32v0zM770 274.12c77.314 65.238 126.086 162.191 126.086 270.536 0 2.737-0.031 5.467-0.093 8.189l0.007-0.404q0 4.4-0.36 8.76c-0.542 8.396-7.484 15-15.969 15-0.011 0-0.022 0-0.033 0h-96.638l-92.52-111c8.444-14.003 13.44-30.912 13.44-48.987 0-53.019-42.981-96-96-96s-96 42.981-96 96c0 53.019 42.981 96 96 96 12.009 0 23.504-2.205 34.1-6.233l-0.659 0.22 102.040 122.48c5.907 6.944 14.653 11.321 24.42 11.321 0.063 0 0.126 0 0.189-0.001h92.55c0.006 0 0.012 0 0.019 0 8.837 0 16 7.163 16 16 0 1.937-0.344 3.793-0.974 5.511l0.036-0.111c-46.56 130.6-168.2 226.6-312.68 234.28h-2.36c-0.179 0.007-0.389 0.011-0.6 0.011-8.837 0-16-7.163-16-16 0-0.004 0-0.008 0-0.012v0.001-117c37.605-13.577 64-48.961 64-90.51 0-53.019-42.981-96-96-96s-96 42.981-96 96c0 41.549 26.395 76.933 63.332 90.298l0.668 0.211v108c0 0.012 0 0.027 0 0.041 0 8.837-7.163 16-16 16-1.262 0-2.49-0.146-3.668-0.423l0.108 0.021c-152.696-38.431-264.591-172.786-268.432-333.897l-0.008-0.423-89.8-172.56-0.88-1.8c-3.366-7.529-5.327-16.317-5.327-25.562 0-24.909 14.23-46.494 35.003-57.070l0.363-0.168 1-0.48 91.64-41.96v-124c0-35.346 28.654-64 64-64v0h160v-32c0-17.673 14.327-32 32-32v0h287.080c0.094-0.001 0.206-0.001 0.317-0.001 5.831 0 11.316 1.482 16.099 4.090l-0.176-0.088c10.012 5.539 16.679 16.038 16.679 28.094 0 1.377-0.087 2.733-0.256 4.064l0.016-0.158z" />
<glyph unicode="&#xe901;" glyph-name="pencil-simple-line" d="M909.28 666.52l-178.76 178.72c-11.582 11.585-27.584 18.75-45.26 18.75s-33.678-7.166-45.26-18.75l-493.24-493.24c-11.587-11.498-18.76-27.43-18.76-45.037 0-0.071 0-0.143 0-0.214v0.011-178.76c0-35.346 28.654-64 64-64v0h672c17.673 0 32 14.327 32 32s-14.327 32-32 32v0h-402.72l448 448c11.585 11.582 18.75 27.584 18.75 45.26s-7.166 33.678-18.75 45.26v0zM768 525.24l-178.72 178.76 96 96 178.72-178.76z" />
<glyph unicode="&#xe902;" glyph-name="pencil-simple-slash" d="M909.28 666.52l-178.76 178.72c-11.582 11.585-27.584 18.75-45.26 18.75s-33.678-7.166-45.26-18.75l-177.44-177.44c-2.907-2.897-4.706-6.905-4.706-11.334 0-4.143 1.575-7.918 4.158-10.76l-0.012 0.013 234.92-258.4c2.937-3.215 7.148-5.225 11.828-5.225 4.427 0 8.435 1.798 11.332 4.704v0l189.2 189.2c11.585 11.582 18.75 27.584 18.75 45.26s-7.166 33.678-18.75 45.26v0zM768 525.24l-178.72 178.76 96 96 178.72-178.76zM855.68 117.52c5.315-5.698 8.578-13.37 8.578-21.804 0-17.673-14.327-32-32-32-9.509 0-18.049 4.147-23.91 10.732l-0.028 0.032-190.72 209.84-201.6-201.56c-11.498-11.587-27.43-18.76-45.037-18.76-0.071 0-0.143 0-0.214 0h-178.749c-35.346 0-64 28.654-64 64v0 178.76c0 0.057 0 0.125 0 0.193 0 17.603 7.156 33.535 18.718 45.045l214.402 214.402-192 211.28c-5.465 5.833-8.821 13.698-8.821 22.348 0 7.858 2.77 15.069 7.387 20.71l-0.046-0.058c5.906 6.909 14.63 11.261 24.37 11.261 9.347 0 17.757-4.007 23.608-10.397l0.022-0.024z" />
<glyph unicode="&#xe903;" glyph-name="pencil-slash" d="M215.68 821.52c-5.889 6.617-14.429 10.764-23.938 10.764-17.673 0-32-14.327-32-32 0-8.434 3.263-16.106 8.595-21.823l-0.017 0.019 192.8-212-214.4-214.48c-11.564-11.512-18.72-27.444-18.72-45.047 0-0.068 0-0.135 0-0.203v0.011-178.76c0-35.346 28.654-64 64-64v0h178.76c0.060 0 0.131 0 0.203 0 17.607 0 33.539 7.173 45.033 18.756l201.604 201.564 190.76-209.84c5.889-6.617 14.429-10.764 23.938-10.764 17.673 0 32 14.327 32 32 0 8.434-3.263 16.106-8.595 21.823l0.017-0.019zM404.24 518.96l63.76-69.92-196-195.8-66.76 66.76zM192 128v114.76l114.76-114.76zM384 141.24l-66.72 66.76 193.64 193.64 63.56-69.92zM909.28 576l-177.28-177.36c-5.801-5.796-13.812-9.38-22.66-9.38-17.706 0-32.060 14.354-32.060 32.060 0 8.858 3.592 16.877 9.4 22.68l58.72 58.72-66.76 66.64-53.4-53.36c-5.727-5.449-13.492-8.801-22.041-8.801-17.673 0-32 14.327-32 32 0 8.548 3.352 16.314 8.813 22.054l53.387 53.387-66.76 66.72-48-48c-5.793-5.797-13.797-9.384-22.64-9.384-17.675 0-32.004 14.329-32.004 32.004 0 8.833 3.578 16.829 9.364 22.62l166.64 166.64c11.582 11.585 27.584 18.75 45.26 18.75s33.678-7.166 45.26-18.75l178.76-178.72c11.585-11.582 18.75-27.584 18.75-45.26s-7.166-33.678-18.75-45.26v0z" />
<glyph unicode="&#xe904;" glyph-name="pentagon" d="M925.040 539.24l-128.24-430.84c-8.46-25.966-32.452-44.4-60.75-44.4-0.018 0-0.035 0-0.053 0h-447.997c-0.015 0-0.033 0-0.050 0-28.298 0-52.29 18.434-60.622 43.949l-0.127 0.451-0.24 0.68-128 430.16c-1.871 5.742-2.95 12.349-2.95 19.208 0 20.932 10.049 39.517 25.586 51.194l0.165 0.118 352.4 273.8c10.442 7.778 23.595 12.452 37.84 12.452s27.398-4.674 38.009-12.573l-0.169 0.121 352.4-273.8c15.701-11.795 25.75-30.38 25.75-51.312 0-6.859-1.079-13.466-3.077-19.661l0.126 0.453z" />
<glyph unicode="&#xe905;" glyph-name="pentagram" d="M240.72 441.92c-2.153-6.465-8.148-11.043-15.213-11.043-3.527 0-6.788 1.141-9.432 3.075l0.045-0.032-125.48 90.080c-16.23 11.576-26.687 30.339-26.687 51.544 0 7.325 1.248 14.358 3.542 20.899l-0.135-0.442c9.108 25.827 33.303 44.003 61.744 44.003 0.217 0 0.433-0.001 0.649-0.003h153.207c0.008 0 0.018 0 0.028 0 8.837 0 16-7.163 16-16 0-1.773-0.288-3.479-0.821-5.073l0.033 0.113zM212.72 148c-2.090-6-3.298-12.917-3.298-20.116 0-21.14 10.412-39.847 26.387-51.275l0.191-0.13c10.346-7.754 23.399-12.416 37.54-12.416s27.194 4.662 37.704 12.533l-0.164-0.117 128.2 92.24c4.061 2.939 6.673 7.665 6.673 13s-2.612 10.061-6.626 12.968l-0.047 0.032-153.76 110.4c-2.593 1.888-5.842 3.020-9.355 3.020-7.056 0-13.045-4.567-15.172-10.907l-0.033-0.113zM572.92 882.96c-8.236 26.313-32.392 45.074-60.931 45.074-28.465 0-52.57-18.664-60.746-44.423l-0.124-0.451-51.12-158.2c-0.5-1.481-0.789-3.187-0.789-4.961 0-8.776 7.066-15.902 15.819-15.999h193.929c0.005 0 0.010 0 0.015 0 8.837 0 16 7.163 16 16 0 1.758-0.284 3.45-0.808 5.033l0.032-0.113zM640 640h-256c-7.068-0.011-13.061-4.604-15.168-10.967l-0.032-0.113-76.8-236c-0.494-1.472-0.779-3.168-0.779-4.93 0-5.329 2.606-10.050 6.612-12.958l0.046-0.032 204.68-147.28c2.594-1.89 5.845-3.023 9.36-3.023s6.766 1.134 9.406 3.055l-0.046-0.032 204.68 147.28c4.053 2.94 6.659 7.661 6.659 12.99 0 1.762-0.285 3.458-0.811 5.043l0.032-0.113-76.6 236c-2.142 6.484-8.147 11.080-15.225 11.080-0.005 0-0.011 0-0.016 0h0.001zM956.52 596c-9.108 25.827-33.303 44.003-61.744 44.003-0.217 0-0.433-0.001-0.649-0.003h-153.087c-0.008 0-0.018 0-0.028 0-8.837 0-16-7.163-16-16 0-1.773 0.288-3.479 0.821-5.073l-0.033 0.113 57.48-177.16c2.16-6.452 8.149-11.020 15.205-11.020 3.513 0 6.762 1.132 9.401 3.052l-0.046-0.032 125.64 90.4c16.142 11.559 26.536 30.253 26.536 51.375 0 7.284-1.236 14.279-3.51 20.787l0.134-0.442zM738.32 305l-153.6-110.52c-4.061-2.939-6.673-7.665-6.673-13s2.612-10.061 6.626-12.968l0.047-0.032 128-92c10.459-7.746 23.615-12.398 37.858-12.398 35.346 0 64 28.654 64 64 0 7.121-1.163 13.971-3.31 20.37l0.131-0.452-48.36 149.080c-2.143 6.481-8.147 11.076-15.223 11.076-3.523 0-6.779-1.138-9.422-3.067l0.045 0.032z" />
<glyph unicode="&#xe906;" glyph-name="pepper" d="M669.080 798.32c-14.822 74.323-79.483 129.571-157.068 129.68h-0.012c-17.673 0-32-14.327-32-32s14.327-32 32-32v0c42.528 0 78.598-27.654 91.207-65.962l0.193-0.678c-124.693-18.659-219.251-124.945-219.4-253.344v-0.016c0-187-103-312-306.12-372-26.85-8.009-46.090-32.479-46.090-61.443 0-31.52 22.786-57.718 52.785-63.021l0.385-0.056c54.248-9.849 116.682-15.481 180.432-15.481 0.565 0 1.131 0 1.696 0.001h-0.088c163.12 0 344.64 36.6 470.12 141.84 105.44 88.4 158.88 212.96 158.88 370.16v0c-0.144 131.080-98.673 239.102-225.707 254.203l-1.213 0.117zM768 580l-113.68 56.68c-4.172 2.133-9.1 3.383-14.32 3.383s-10.148-1.25-14.502-3.467l0.182 0.084-113.68-56.68-53.48 26.72c26.779 75.903 97.891 129.318 181.48 129.318s154.701-53.416 181.066-127.975l0.414-1.344z" />
<glyph unicode="&#xe907;" glyph-name="percent" d="M704 272c0-26.51-21.49-48-48-48s-48 21.49-48 48c0 26.51 21.49 48 48 48v0c26.51 0 48-21.49 48-48v0zM368 576c26.51 0 48 21.49 48 48s-21.49 48-48 48c-26.51 0-48-21.49-48-48v0c0-26.51 21.49-48 48-48v0zM896 768v-640c0-35.346-28.654-64-64-64v0h-640c-35.346 0-64 28.654-64 64v0 640c0 35.346 28.654 64 64 64v0h640c35.346 0 64-28.654 64-64v0zM256 624c0-61.856 50.144-112 112-112s112 50.144 112 112c0 61.856-50.144 112-112 112v0c-61.856 0-112-50.144-112-112v0zM768 272c0 61.856-50.144 112-112 112s-112-50.144-112-112c0-61.856 50.144-112 112-112v0c61.856 0 112 50.144 112 112v0zM758.64 694.64c-5.792 5.798-13.797 9.385-22.64 9.385s-16.848-3.587-22.64-9.385v0l-448-448c-5.794-5.794-9.378-13.799-9.378-22.64 0-17.683 14.335-32.018 32.018-32.018 8.841 0 16.846 3.584 22.64 9.378l448 448c5.798 5.792 9.385 13.797 9.385 22.64s-3.587 16.848-9.385 22.64v0z" />
<glyph unicode="&#xe908;" glyph-name="person-arms-spread" d="M400 816c0 61.856 50.144 112 112 112s112-50.144 112-112c0-61.856-50.144-112-112-112v0c-61.856 0-112 50.144-112 112v0zM910.4 589.72c-6.029 28.892-31.287 50.286-61.541 50.286-0.302 0-0.604-0.002-0.905-0.006l0.046 0.001h-672c-0.001 0-0.002 0-0.003 0-35.346 0-64-28.654-64-64 0-25.625 15.060-47.733 36.812-57.955l0.391-0.165h0.24l215.56-94.92-87.68-333.2c-3.386-7.548-5.358-16.361-5.358-25.634 0-25.53 14.948-47.568 36.57-57.84l0.388-0.166c7.925-3.851 17.237-6.107 27.076-6.12h0.004c0.028 0 0.061 0 0.094 0 25.251 0 47.086 14.623 57.499 35.863l0.167 0.377 118.24 203.76 118.32-204c10.67-21.357 32.37-35.766 57.435-35.766 35.346 0 64 28.654 64 64 0 9.094-1.897 17.744-5.316 25.578l0.16-0.412-87.68 333.2 216 95.040c22.122 10.039 37.23 31.934 37.23 57.359 0 5.225-0.638 10.3-1.84 15.153l0.090-0.432z" />
<glyph unicode="&#xe909;" glyph-name="person-simple-bike" d="M544 752c0 61.856 50.144 112 112 112s112-50.144 112-112c0-61.856-50.144-112-112-112v0c-61.856 0-112 50.144-112 112v0zM960 256c0-88.366-71.634-160-160-160s-160 71.634-160 160c0 88.366 71.634 160 160 160v0c88.366 0 160-71.634 160-160v0zM896 256c0 53.019-42.981 96-96 96s-96-42.981-96-96c0-53.019 42.981-96 96-96v0c53.019 0 96 42.981 96 96v0zM800 512c0 17.673-14.327 32-32 32v0h-146.76l-118.6 118.64c-5.792 5.798-13.797 9.385-22.64 9.385s-16.848-3.587-22.64-9.385v0l-128-128c-5.798-5.792-9.385-13.797-9.385-22.64s3.587-16.848 9.385-22.64l150.64-150.6v-178.76c0-17.673 14.327-32 32-32s32 14.327 32 32v0 192c0 0.007 0 0.016 0 0.025 0 8.83-3.577 16.825-9.36 22.615v0l-137.4 137.36 82.76 82.76 105.36-105.4c5.79-5.783 13.785-9.36 22.615-9.36 0.009 0 0.018 0 0.027 0h159.999c17.673 0 32 14.327 32 32v0zM384 256c0-88.366-71.634-160-160-160s-160 71.634-160 160c0 88.366 71.634 160 160 160v0c88.366 0 160-71.634 160-160v0zM320 256c0 53.019-42.981 96-96 96s-96-42.981-96-96c0-53.019 42.981-96 96-96v0c53.019 0 96 42.981 96 96v0z" />
<glyph unicode="&#xe90a;" glyph-name="person-simple-circle" d="M512 864c-229.75 0-416-186.25-416-416s186.25-416 416-416c229.75 0 416 186.25 416 416v0c-0.25 229.65-186.35 415.75-415.976 416h-0.024zM512 704c35.346 0 64-28.654 64-64s-28.654-64-64-64c-35.346 0-64 28.654-64 64v0c0 35.346 28.654 64 64 64v0zM704 480h-160v-54.32l122.64-184c3.369-4.991 5.377-11.141 5.377-17.76 0-17.683-14.335-32.017-32.017-32.017-11.063 0-20.816 5.611-26.568 14.143l-0.072 0.114-101.36 152-101.36-152c-5.824-8.646-15.577-14.257-26.64-14.257-17.683 0-32.017 14.335-32.017 32.017 0 6.619 2.009 12.769 5.45 17.874l-0.072-0.114 122.64 184v54.32h-160c-17.673 0-32 14.327-32 32s14.327 32 32 32v0h384c17.673 0 32-14.327 32-32s-14.327-32-32-32v0z" />
<glyph unicode="&#xe90b;" glyph-name="person-simple-hike" d="M480 768c0 70.692 57.308 128 128 128s128-57.308 128-128c0-70.692-57.308-128-128-128v0c-70.692 0-128 57.308-128 128v0zM768 416c-93.48 0-115.68 34.24-146.4 81.6-14.6 22.56-31.16 48-56.64 70.2-9.334 8.196-19.832 15.464-31.113 21.451l-0.887 0.429c-4.258 2.24-9.304 3.554-14.657 3.554-13.056 0-24.286-7.819-29.262-19.030l-0.081-0.204-230.32-529.24c-1.67-3.752-2.642-8.129-2.642-12.733 0-13.059 7.823-24.292 19.038-29.266l0.204-0.081c3.732-1.693 8.094-2.68 12.685-2.68 0.026 0 0.053 0 0.079 0h-0.004c0.004 0 0.009 0 0.014 0 13.058 0 24.29 7.822 29.265 19.036l0.081 0.204 134.36 309.080 124.28-88.8v-207.52c0-17.673 14.327-32 32-32s32 14.327 32 32v0 224c0 0 0 0.001 0 0.001 0 10.694-5.246 20.164-13.305 25.974l-0.095 0.065-148.8 106.28 53.6 123.24c14.28-14.48 25.12-31.2 36.52-48.76 30.68-47.36 65.080-100.44 168-109.44v-321.36c0-17.673 14.327-32 32-32s32 14.327 32 32v0 352c0 0 0 0 0 0 0 17.645-14.281 31.954-31.916 32h-0.004zM288 352c0.007 0 0.016 0 0.025 0 13.12 0 24.395 7.895 29.335 19.194l0.080 0.206 96 224c1.632 3.713 2.582 8.042 2.582 12.593 0 13.113-7.887 24.384-19.176 29.327l-0.206 0.080-112 48c-3.713 1.632-8.042 2.582-12.593 2.582-13.113 0-24.384-7.887-29.327-19.176l-0.080-0.206-96-224c-1.632-3.713-2.582-8.042-2.582-12.593 0-13.113 7.887-24.384 19.176-29.327l0.206-0.080 112-48c3.702-1.633 8.018-2.589 12.556-2.6h0.004z" />
<glyph unicode="&#xe90c;" glyph-name="person-simple-run" d="M480 736c0 70.692 57.308 128 128 128s128-57.308 128-128c0-70.692-57.308-128-128-128v0c-70.692 0-128 57.308-128 128v0zM893.12 439.68c-5.139 11.212-16.265 18.86-29.178 18.86-4.793 0-9.339-1.054-13.421-2.942l0.198 0.082c-1-0.48-106.84-42.88-288.72 80.76-209.16 142.16-352 31.080-358.040 26.28-7.795-5.901-12.78-15.161-12.78-25.585 0-17.673 14.327-32 32-32 7.952 0 15.226 2.9 20.823 7.701l-0.043-0.036c1.040 0.84 100.48 78 256.28-13.080-17-53.4-51.040-127.28-101-188-74.24-89.92-164.44-130.24-268-120-0.966 0.103-2.086 0.162-3.22 0.162-17.685 0-32.022-14.337-32.022-32.022 0-16.551 12.557-30.17 28.664-31.848l0.138-0.012c11.159-1.197 24.104-1.88 37.209-1.88 0.053 0 0.106 0 0.159 0h-0.008c109.52 0 208 49.52 286.52 144.72 2.28 2.76 4.56 5.6 6.76 8.4 77.8-20.4 216.56-80.44 216.56-247.24 0-17.673 14.327-32 32-32s32 14.327 32 32v0c0 98.6-40.32 181.4-116.6 239.44-35.797 26.721-77.402 48.271-122.285 62.435l-2.955 0.805c23.237 37.042 44.097 79.72 60.348 124.605l1.492 4.715c104.56-64.36 187.36-80 242.76-80 48.72 0 76.24 12 78.68 13.12 11.101 5.182 18.656 16.251 18.656 29.085 0 4.89-1.097 9.524-3.058 13.67l0.083-0.195z" />
<glyph unicode="&#xe90d;" glyph-name="person-simple-ski" d="M576 720c0 61.856 50.144 112 112 112s112-50.144 112-112c0-61.856-50.144-112-112-112v0c-61.856 0-112 50.144-112 112v0zM151.040 609.28l444-129.44 22.44-22.44c5.763-5.776 13.719-9.362 22.513-9.4h160.007c17.673 0 32 14.327 32 32s-14.327 32-32 32v0h-146.76l-118.48 118.48c-5.792 5.798-13.797 9.385-22.64 9.385s-16.848-3.587-22.64-9.385v0l-41.48-41.16-279.040 81.4c-2.683 0.812-5.767 1.28-8.96 1.28-17.673 0-32-14.327-32-32 0-14.48 9.618-26.714 22.813-30.662l0.227-0.058zM954.64 187.4c-5.819 8.649-15.572 14.264-26.635 14.264-6.622 0-12.774-2.011-17.878-5.456l0.114 0.072c-33.577-22.721-74.976-36.271-119.539-36.271-21.548 0-42.356 3.168-61.983 9.064l1.523-0.393-251.16 73.12 119.6 119.6c5.792 5.791 9.375 13.792 9.375 22.63 0 14.544-9.703 26.822-22.988 30.714l-0.226 0.057-224 64c-2.636 0.783-5.666 1.233-8.8 1.233-17.68 0-32.013-14.333-32.013-32.013 0-14.546 9.701-26.826 22.987-30.723l0.226-0.057 171.68-49.24-106-105.96-304 88.52c-2.683 0.812-5.767 1.28-8.96 1.28-17.673 0-32-14.327-32-32 0-14.48 9.618-26.714 22.813-30.662l0.227-0.058 625.24-182.080c23.48-7.133 50.465-11.24 78.41-11.24 57.807 0 111.51 17.573 156.058 47.669l-0.988-0.629c8.708 5.811 14.366 15.596 14.366 26.703 0 6.661-2.035 12.846-5.517 17.969l0.072-0.111z" />
<glyph unicode="&#xe90e;" glyph-name="person-simple-snowboard" d="M544 752c0 61.856 50.144 112 112 112s112-50.144 112-112c0-61.856-50.144-112-112-112v0c-61.856 0-112 50.144-112 112v0zM894.68 471c-4.027-13.39-16.245-22.977-30.702-22.977-3.214 0-6.318 0.474-9.245 1.356l0.227-0.059-316.28 93.040-31.12-46.68 141.32-40.92c13.454-3.986 23.102-16.235 23.102-30.738 0-6.646-2.026-12.819-5.494-17.934l0.072 0.112-79-117.76 203.56-59c42.289-12.641 72.63-51.084 72.88-96.651v-0.029c-0.204-55.594-45.24-100.601-100.825-100.76h-0.015c-0.018 0-0.040 0-0.062 0-10.151 0-19.961 1.461-29.231 4.184l0.732-0.184-629.76 182.6c-42.272 12.655-72.596 51.093-72.84 96.652v0.028c0.123 55.688 45.295 100.783 101 100.783 10.107 0 19.868-1.485 29.075-4.248l-0.715 0.184 178.92-52 134.080 201.12-163.4 48c-13.383 4.032-22.963 16.247-22.963 30.7 0 17.675 14.328 32.003 32.003 32.003 3.222 0 6.333-0.476 9.267-1.362l-0.227 0.059 544-160c13.344-4.056 22.887-16.251 22.887-30.675 0-3.151-0.455-6.196-1.304-9.071l0.057 0.226zM470.32 440l-65.6-98.4 118.32-34.32 65.96 98.36z" />
<glyph unicode="&#xe90f;" glyph-name="person-simple-swim" d="M576 672c0 70.692 57.308 128 128 128s128-57.308 128-128c0-70.692-57.308-128-128-128v0c-70.692 0-128 57.308-128 128v0zM843.56 223.24c-127.32-105.56-214.88-58.040-316.28-2.96-106.44 57.76-227.040 123.24-387.72-9.96-7.197-5.913-11.752-14.814-11.752-24.779 0-17.673 14.327-32 32-32 7.883 0 15.101 2.851 20.678 7.577l-0.047-0.038c127.32 105.56 214.88 58 316.28 2.96 60.44-32.8 125.4-68 199.72-68 56.56 0 118.56 20.44 188 78 7.093 5.914 11.574 14.754 11.574 24.64 0 17.681-14.333 32.014-32.014 32.014-7.795 0-14.939-2.786-20.491-7.416l0.051 0.042zM139.56 370.28c-7.197-5.913-11.752-14.814-11.752-24.779 0-17.673 14.327-32 32-32 7.883 0 15.101 2.851 20.678 7.577l-0.047-0.038c127.32 105.52 214.88 58 316.28 2.96 60.44-32.8 125.4-68 199.72-68 56.56 0 118.56 20.44 188 78 7.197 5.913 11.752 14.814 11.752 24.779 0 17.673-14.327 32-32 32-7.883 0-15.101-2.851-20.678-7.577l0.047 0.038c-22.15-19.112-47.586-35.292-75.181-47.476l-1.939-0.764-215.36 215.28c-74.868 75.192-178.47 121.722-292.94 121.722-0.415 0-0.83-0.001-1.245-0.002h-96.895c-17.673 0-32-14.327-32-32s14.327-32 32-32v0h96.96c0.2 0 0.436 0.001 0.672 0.001 61.138 0 118.622-15.647 168.665-43.156l-1.817 0.915-118.52-118.44c-50.68-4.76-105.68-26.68-166.4-77z" />
<glyph unicode="&#xe910;" glyph-name="person-simple-tai-chi" d="M384 768c0 70.692 57.308 128 128 128s128-57.308 128-128c0-70.692-57.308-128-128-128v0c-70.692 0-128 57.308-128 128v0zM864 576h-704c-17.673 0-32-14.327-32-32s14.327-32 32-32v0h320v-113.76l-309.4-278.44c-6.568-5.899-10.681-14.419-10.681-23.9 0-17.718 14.363-32.081 32.081-32.081 8.237 0 15.749 3.104 21.43 8.207l-0.030-0.026 304.8 274.32 185.8-79.44v-170.88c0-17.673 14.327-32 32-32s32 14.327 32 32v0 192c-0.006 13.114-7.9 24.382-19.194 29.32l-0.206 0.080-204.6 87.72v106.88h320c17.673 0 32 14.327 32 32s-14.327 32-32 32v0z" />
<glyph unicode="&#xe911;" glyph-name="person-simple-throw" d="M384 736c0 70.692 57.308 128 128 128s128-57.308 128-128c0-70.692-57.308-128-128-128v0c-70.692 0-128 57.308-128 128v0zM884 562.56c-6 4.8-148.88 116-358.040-26.28-181.96-123.64-287.68-81.2-288.68-80.76-4.001 1.934-8.701 3.064-13.665 3.064-17.673 0-32-14.327-32-32 0-13.022 7.778-24.227 18.942-29.223l0.203-0.081c2.44-1.12 29.96-13.080 78.68-13.080 56.84 0 142.56 16.44 251.080 85.16-9.12-117.64-50.92-333.88-293.72-406.72-13.663-3.849-23.511-16.201-23.511-30.853 0-17.673 14.327-32 32-32 3.543 0 6.951 0.576 10.136 1.639l-0.226-0.065c139.32 41.8 237.8 129.36 292.8 260.32 6.49 14.811 13.429 33.834 19.349 53.301l1.051 4.019 88.32-73.6-57.080-171.28c-1.041-3.020-1.642-6.5-1.642-10.12 0-17.674 14.328-32.002 32.002-32.002 14.054 0 25.992 9.059 30.293 21.657l0.067 0.225 64 192c1.043 3.022 1.645 6.505 1.645 10.128 0 9.862-4.461 18.681-11.475 24.551l-0.050 0.041-129.68 108c6.43 35.664 10.745 77.507 11.972 120.124l0.028 1.236c144.72 74.28 236 3.4 237.12 2.6 5.554-4.764 12.828-7.665 20.78-7.665 17.673 0 32 14.327 32 32 0 10.424-4.984 19.684-12.7 25.527l-0.080 0.058zM256 512c35.346 0 64 28.654 64 64s-28.654 64-64 64c-35.346 0-64-28.654-64-64v0c0-35.346 28.654-64 64-64v0z" />
<glyph unicode="&#xe912;" glyph-name="person-simple-walk" d="M480 768c0 70.692 57.308 128 128 128s128-57.308 128-128c0-70.692-57.308-128-128-128v0c-70.692 0-128 57.308-128 128v0zM832 416c-114.56 0-167.24 53.2-223 109.48-14.12 14.28-28.72 29.040-44 42.32-148 128.56-384.88-90.92-394.88-100.32-5.897-5.808-9.551-13.879-9.551-22.804 0-17.673 14.327-32 32-32 8.218 0 15.713 3.098 21.38 8.19l-0.029-0.026c35.755 32.402 75.768 61.287 118.785 85.458l3.295 1.702c55.12 29.52 101.56 40.92 138.8 34.32l-216.16-497.56c-1.67-3.752-2.642-8.129-2.642-12.733 0-13.059 7.823-24.292 19.038-29.266l0.204-0.081c3.732-1.693 8.094-2.68 12.685-2.68 0.026 0 0.053 0 0.079 0h-0.004c0.004 0 0.009 0 0.014 0 13.058 0 24.29 7.822 29.265 19.036l0.081 0.204 134.36 309.080 124.28-88.8v-207.52c0-17.673 14.327-32 32-32s32 14.327 32 32v0 224c0 0 0 0.001 0 0.001 0 10.694-5.246 20.164-13.305 25.974l-0.095 0.065-148.8 106.28 53.72 123.68c10.56-9.76 21.040-20.28 32-31.36 56.68-57.4 127.24-128.64 268.48-128.64 17.673 0 32 14.327 32 32s-14.327 32-32 32v0z" />
<glyph unicode="&#xe913;" glyph-name="person-simple" d="M383.56 768c0 70.692 57.308 128 128 128s128-57.308 128-128c0-70.692-57.308-128-128-128v0c-70.692 0-128 57.308-128 128v0zM912.48 475.44c-6.88 4.12-170.28 100.56-400.48 100.56s-393.6-96.44-400.48-100.56c-9.367-5.697-15.528-15.849-15.528-27.44 0-17.678 14.331-32.008 32.008-32.008 6.087 0 11.777 1.699 16.621 4.648l-0.141-0.080c1.44 0.88 139.64 82.4 335.52 90.72v-147.28l-248-278.76c-4.997-5.626-8.049-13.077-8.049-21.24 0-17.7 14.349-32.049 32.049-32.049 9.537 0 18.101 4.165 23.971 10.776l0.029 0.033 232 261.24 232-261.080c5.899-6.644 14.463-10.809 24-10.809 17.7 0 32.049 14.349 32.049 32.049 0 8.163-3.052 15.614-8.078 21.273l0.029-0.033-248 278.6v147.24c195.080-8.32 334.12-89.84 335.52-90.68 4.703-2.87 10.393-4.568 16.48-4.568 17.678 0 32.008 14.331 32.008 32.008 0 11.591-6.161 21.743-15.387 27.36l-0.141 0.080z" />
<glyph unicode="&#xe914;" glyph-name="person" d="M400 816c0 61.856 50.144 112 112 112s112-50.144 112-112c0-61.856-50.144-112-112-112v0c-61.856 0-112 50.144-112 112v0zM861.68 396.88l-181 205.2c-20.622 23.303-50.604 37.92-84 37.92h-169.36c-33.396 0-63.378-14.617-83.897-37.802l-0.103-0.118-181-205.2c-11.274-11.527-18.23-27.318-18.23-44.733 0-35.346 28.654-64 64-64 17.286 0 32.971 6.853 44.487 17.99l-0.018-0.017 103.44 83.080-78.8-299.52c-3.498-7.659-5.538-16.612-5.538-26.042 0-35.346 28.654-64 64-64 25.407 0 47.357 14.805 57.691 36.259l0.166 0.383 118.48 203.72 118.32-204c10.501-21.837 32.451-36.642 57.858-36.642 35.346 0 64 28.654 64 64 0 9.43-2.039 18.383-5.701 26.443l0.163-0.401-78.64 299.8 103.6-83.080c11.498-11.12 27.184-17.973 44.47-17.973 35.346 0 64 28.654 64 64 0 17.415-6.956 33.206-18.241 44.745l0.011-0.012z" />
<glyph unicode="&#xe915;" glyph-name="perspective" d="M992 416c0-17.673-14.327-32-32-32v0h-64v-256c0-35.346-28.654-64-64-64v0c-4.065 0.012-8.034 0.389-11.886 1.102l0.406-0.062-640 116.36c-30.068 5.63-52.519 31.673-52.52 62.96v0 139.64h-64c-17.673 0-32 14.327-32 32s14.327 32 32 32v0h896c17.673 0 32-14.327 32-32v0zM144 512h736c8.837 0 16 7.163 16 16v0 238.32c0.004 0.279 0.007 0.608 0.007 0.938 0 16.648-6.171 31.854-16.351 43.457l0.064-0.075c-11.771 13.129-28.784 21.351-47.719 21.351-4.045 0-8.001-0.375-11.838-1.093l0.396 0.062-640-116.36c-30.085-5.613-52.555-31.662-52.56-62.96v0-123.64c0-8.837 7.163-16 16-16v0z" />
<glyph unicode="&#xe916;" glyph-name="phone-call" d="M577.080 776.28c3.773 13.776 16.181 23.732 30.913 23.732 2.947 0 5.801-0.398 8.511-1.144l-0.225 0.053c120.967-32.312 214.328-125.672 246.090-244.229l0.55-2.411c0.693-2.485 1.092-5.34 1.092-8.287 0-14.733-9.956-27.14-23.507-30.861l-0.225-0.053c-2.482-0.679-5.333-1.072-8.275-1.080h-0.005c-0.003 0-0.006 0-0.010 0-14.728 0-27.133 9.95-30.858 23.495l-0.053 0.225c-26.341 98.768-102.56 175-199.353 200.912l-1.967 0.448c-13.795 3.761-23.769 16.177-23.769 30.923 0 2.944 0.397 5.794 1.142 8.501l-0.053-0.225zM567.76 609.080c55.16-14.72 90.6-50.2 105.32-105.36 3.777-13.77 16.182-23.72 30.91-23.72 0.003 0 0.007 0 0.010 0h-0.001c2.947 0.008 5.798 0.401 8.51 1.133l-0.23-0.053c13.776 3.773 23.732 16.181 23.732 30.913 0 2.947-0.398 5.801-1.144 8.511l0.053-0.225c-20.48 76.64-74 130.16-150.64 150.64-2.478 0.689-5.323 1.084-8.26 1.084-17.675 0-32.004-14.329-32.004-32.004 0-14.738 9.962-27.149 23.52-30.867l0.225-0.053zM857.48 294.16l-188.96 84.68c-7.422 3.259-16.073 5.156-25.168 5.156-13.236 0-25.534-4.018-35.74-10.901l0.227 0.145c-1.137-0.755-2.115-1.491-3.048-2.28l0.048 0.040-97.36-83c-61.68 29.96-125.36 93.16-155.32 154.040l83.12 98.84c0.8 1 1.56 2 2.28 3.080 6.548 9.877 10.448 22.006 10.448 35.045 0 9.105-1.901 17.766-5.328 25.607l0.161-0.412v0.48l-84.68 188.76c-10.096 22.875-32.579 38.552-58.723 38.552-2.734 0-5.428-0.171-8.072-0.504l0.315 0.032c-111.012-15.024-195.68-109.183-195.68-223.117 0-0.142 0-0.284 0-0.425v0.022c0-317.6 258.4-576 576-576 0.12 0 0.262 0 0.403 0 113.934 0 208.092 84.669 222.988 194.518l0.129 1.163c0.302 2.334 0.474 5.034 0.474 7.773 0 26.13-15.659 48.602-38.105 58.545l-0.409 0.162z" />
<glyph unicode="&#xe917;" glyph-name="phone-disconnect" d="M945.12 312.64c-11.823-15.011-29.998-24.561-50.404-24.561-8.316 0-16.261 1.586-23.55 4.472l0.433-0.151-197.16 70c-19.744 8.050-34.34 25.116-38.805 45.94l-0.075 0.42-24.84 119c-29.436 10.367-63.378 16.357-98.719 16.357-35.817 0-70.198-6.152-102.143-17.458l2.142 0.661-23.6-118.080c-4.391-21.495-19.078-38.8-38.573-46.766l-0.427-0.154-1.16-0.44-196-69.48c-6.764-2.744-14.607-4.355-22.822-4.4h-0.018c-0.035 0-0.076 0-0.117 0-20.405 0-38.581 9.55-50.3 24.424l-0.104 0.136c-68.92 88.88-61.2 206.84 18.76 286.84 224.6 224.68 604 224.68 828.72 0v0c79.96-79.92 87.68-197.88 18.76-286.76zM864 192h-704c-17.673 0-32-14.327-32-32s14.327-32 32-32v0h704c17.673 0 32 14.327 32 32s-14.327 32-32 32v0z" />
<glyph unicode="&#xe918;" glyph-name="phone-incoming" d="M895.52 227.68c-15.024-111.012-109.183-195.68-223.117-195.68-0.142 0-0.284 0-0.425 0h0.022c-317.6 0-576 258.4-576 576 0 0.12 0 0.262 0 0.403 0 113.934 84.669 208.092 194.518 222.988l1.163 0.129c2.329 0.3 5.023 0.472 7.757 0.472 26.144 0 48.627-15.677 58.562-38.143l0.161-0.409 84.48-188.6v-0.48c3.336-7.499 5.279-16.249 5.279-25.452 0-12.982-3.865-25.061-10.507-35.149l0.149 0.241c-0.72-1.080-1.48-2.080-2.28-3.080l-83.28-98.72c29.96-60.88 93.64-124 155.32-154.040l97.36 82.84c0.885 0.749 1.863 1.485 2.882 2.166l0.118 0.074c9.978 6.738 22.276 10.756 35.512 10.756 9.095 0 17.746-1.897 25.58-5.317l-0.412 0.16 0.52-0.24 188.44-84.44c22.937-10.070 38.666-32.584 38.666-58.772 0-2.717-0.169-5.394-0.498-8.021l0.032 0.313zM608 512h160c17.673 0 32 14.327 32 32s-14.327 32-32 32v0h-82.72l137.36 137.36c5.794 5.794 9.378 13.799 9.378 22.64 0 17.683-14.335 32.018-32.018 32.018-8.841 0-16.846-3.584-22.64-9.378v0l-137.36-137.4v82.76c0 17.673-14.327 32-32 32s-32-14.327-32-32v0-160c0-17.673 14.327-32 32-32v0z" />
<glyph unicode="&#xe919;" glyph-name="phone-list" d="M895.52 227.68c-15.024-111.012-109.183-195.68-223.117-195.68-0.142 0-0.284 0-0.425 0h0.022c-317.6 0-576 258.4-576 576 0 0.12 0 0.262 0 0.403 0 113.934 84.669 208.092 194.518 222.988l1.163 0.129c2.329 0.3 5.023 0.472 7.757 0.472 26.144 0 48.627-15.677 58.562-38.143l0.161-0.409 84.48-188.6c-0.008-0.072-0.012-0.155-0.012-0.24s0.004-0.168 0.013-0.25l-0.001 0.010c3.336-7.499 5.279-16.249 5.279-25.452 0-12.982-3.865-25.061-10.507-35.149l0.149 0.241c-0.72-1.080-1.48-2.080-2.28-3.080l-83.28-98.72c29.96-60.88 93.64-124 155.32-154.040l97.36 82.84c0.885 0.749 1.863 1.485 2.882 2.166l0.118 0.074c9.982 6.745 22.285 10.767 35.528 10.767 9.104 0 17.764-1.901 25.604-5.327l-0.412 0.16 0.48-0.24 188.4-84.44c22.957-10.061 38.704-32.586 38.704-58.789 0-2.711-0.169-5.382-0.496-8.004l0.032 0.313zM576 672h256c17.673 0 32 14.327 32 32s-14.327 32-32 32v0h-256c-17.673 0-32-14.327-32-32s14.327-32 32-32v0zM576 512h256c17.673 0 32 14.327 32 32s-14.327 32-32 32v0h-256c-17.673 0-32-14.327-32-32s14.327-32 32-32v0z" />
<glyph unicode="&#xe91a;" glyph-name="phone-outgoing" d="M585.36 521.36c-5.798 5.792-9.385 13.797-9.385 22.64s3.587 16.848 9.385 22.64l137.4 137.36h-82.76c-17.673 0-32 14.327-32 32s14.327 32 32 32v0h160c17.673 0 32-14.327 32-32v0-160c0-17.673-14.327-32-32-32s-32 14.327-32 32v0 82.76l-137.36-137.4c-5.792-5.798-13.797-9.385-22.64-9.385s-16.848 3.587-22.64 9.385v0zM857.36 294.16l-188.96 84.68c-7.422 3.259-16.073 5.156-25.168 5.156-13.236 0-25.534-4.018-35.74-10.901l0.227 0.145c-1.137-0.755-2.115-1.491-3.048-2.28l0.048 0.040-97.24-83c-61.68 29.96-125.36 93.16-155.32 154.040l83.12 98.84c0.8 1 1.56 2 2.28 3.080 6.548 9.877 10.448 22.006 10.448 35.045 0 9.105-1.901 17.766-5.328 25.607l0.161-0.412v0.48l-84.68 188.76c-10.096 22.875-32.579 38.552-58.723 38.552-2.734 0-5.428-0.171-8.072-0.504l0.315 0.032c-111.012-15.024-195.68-109.183-195.68-223.117 0-0.142 0-0.284 0-0.425v0.022c0-317.6 258.4-576 576-576 0.12 0 0.262 0 0.403 0 113.934 0 208.092 84.669 222.988 194.518l0.129 1.163c0.302 2.334 0.474 5.034 0.474 7.773 0 26.13-15.659 48.602-38.105 58.545l-0.409 0.162z" />
<glyph unicode="&#xe91b;" glyph-name="phone-pause" d="M895.52 227.68c-15.024-111.012-109.183-195.68-223.117-195.68-0.142 0-0.284 0-0.425 0h0.022c-317.6 0-576 258.4-576 576 0 0.12 0 0.262 0 0.403 0 113.934 84.669 208.092 194.518 222.988l1.163 0.129c2.329 0.3 5.023 0.472 7.757 0.472 26.144 0 48.627-15.677 58.562-38.143l0.161-0.409 84.48-188.6v-0.48c3.336-7.499 5.279-16.249 5.279-25.452 0-12.982-3.865-25.061-10.507-35.149l0.149 0.241c-0.72-1.080-1.48-2.080-2.28-3.080l-83.28-98.72c29.96-60.88 93.64-124 155.32-154.040l97.36 82.84c0.885 0.749 1.863 1.485 2.882 2.166l0.118 0.074c9.982 6.745 22.285 10.767 35.528 10.767 9.104 0 17.764-1.901 25.604-5.327l-0.412 0.16 0.48-0.24 188.4-84.44c22.957-10.061 38.704-32.586 38.704-58.789 0-2.711-0.169-5.382-0.496-8.004l0.032 0.313zM800 512c17.673 0 32 14.327 32 32v0 224c0 17.673-14.327 32-32 32s-32-14.327-32-32v0-224c0-17.673 14.327-32 32-32v0zM640 512c17.673 0 32 14.327 32 32v0 224c0 17.673-14.327 32-32 32s-32-14.327-32-32v0-224c0-17.673 14.327-32 32-32v0z" />
<glyph unicode="&#xe91c;" glyph-name="phone-plus" d="M895.52 227.68c-15.024-111.012-109.183-195.68-223.117-195.68-0.142 0-0.284 0-0.425 0h0.022c-317.6 0-576 258.4-576 576 0 0.12 0 0.262 0 0.403 0 113.934 84.669 208.092 194.518 222.988l1.163 0.129c2.329 0.3 5.023 0.472 7.757 0.472 26.144 0 48.627-15.677 58.562-38.143l0.161-0.409 84.48-188.6c-0.008-0.072-0.012-0.155-0.012-0.24s0.004-0.168 0.013-0.25l-0.001 0.010c3.336-7.499 5.279-16.249 5.279-25.452 0-12.982-3.865-25.061-10.507-35.149l0.149 0.241c-0.72-1.080-1.48-2.080-2.28-3.080l-83.28-98.72c29.96-60.88 93.64-124 155.32-154.040l97.36 82.84c0.885 0.749 1.863 1.485 2.882 2.166l0.118 0.074c9.982 6.745 22.285 10.767 35.528 10.767 9.104 0 17.764-1.901 25.604-5.327l-0.412 0.16 0.48-0.24 188.4-84.44c22.957-10.061 38.704-32.586 38.704-58.789 0-2.711-0.169-5.382-0.496-8.004l0.032 0.313zM576 608h96v-96c0-17.673 14.327-32 32-32s32 14.327 32 32v0 96h96c17.673 0 32 14.327 32 32s-14.327 32-32 32v0h-96v96c0 17.673-14.327 32-32 32s-32-14.327-32-32v0-96h-96c-17.673 0-32-14.327-32-32s14.327-32 32-32v0z" />
<glyph unicode="&#xe91d;" glyph-name="phone-slash" d="M945.12 248.6c-11.822-15.029-30.008-24.591-50.428-24.591-8.307 0-16.243 1.582-23.526 4.462l0.433-0.151-99.040 76c-0.791 0.582-1.485 1.213-2.109 1.907l-0.011 0.013-333.72 367.28c-2.601 2.836-4.196 6.632-4.196 10.801 0 8.271 6.277 15.077 14.327 15.914l0.069 0.006c172 18.48 350.96-36.48 479.44-164.96v0c79.96-79.96 87.68-197.84 18.76-286.68zM215.72 821.52c-5.889 6.617-14.429 10.764-23.938 10.764-17.673 0-32-14.327-32-32 0-8.434 3.263-16.106 8.595-21.823l-0.017 0.019 110.48-121.56c-70.425-30.043-130.564-71.091-181.207-121.647l0.007 0.007c-80-80-87.68-197.84-18.76-286.68 11.822-15.029 30.008-24.591 50.428-24.591 8.307 0 16.243 1.582 23.526 4.462l-0.433-0.151 197.16 69.92c19.912 8.113 34.597 25.401 38.929 46.467l0.071 0.413 23.6 118.040c9.107 3.312 20.585 6.605 32.325 9.198l1.955 0.362 362-398.24c5.889-6.617 14.429-10.764 23.938-10.764 17.673 0 32 14.327 32 32 0 8.434-3.263 16.106-8.595 21.823l0.017-0.019z" />
<glyph unicode="&#xe91e;" glyph-name="phone-transfer" d="M544 672c0 17.673 14.327 32 32 32v0h210.76l-73.4 73.36c-5.794 5.794-9.378 13.799-9.378 22.64 0 17.683 14.335 32.018 32.018 32.018 8.841 0 16.846-3.584 22.64-9.378v0l128-128c5.798-5.792 9.385-13.797 9.385-22.64s-3.587-16.848-9.385-22.64v0l-128-128c-5.794-5.794-13.799-9.378-22.64-9.378-17.683 0-32.018 14.335-32.018 32.018 0 8.841 3.584 16.846 9.378 22.64l73.4 73.36h-210.76c-17.673 0-32 14.327-32 32v0zM857.44 294.16l-188.88 84.68c-7.429 3.266-16.088 5.167-25.192 5.167-13.243 0-25.546-4.022-35.755-10.911l0.227 0.144c-1.137-0.755-2.115-1.491-3.048-2.28l0.048 0.040-97.36-83c-61.68 29.96-125.36 93.16-155.32 154.040l83.12 98.84c0.8 1 1.56 2 2.28 3.080 6.548 9.877 10.448 22.006 10.448 35.045 0 9.105-1.901 17.766-5.328 25.607l0.161-0.412v0.48l-84.68 188.76c-10.104 22.855-32.577 38.514-58.707 38.514-2.74 0-5.44-0.172-8.089-0.506l0.315 0.032c-111.005-14.987-195.68-109.128-195.68-223.046 0-0.152 0-0.305 0-0.457v0.024c0-317.6 258.4-576 576-576 0.129 0 0.281 0 0.434 0 113.918 0 208.059 84.675 222.918 194.52l0.128 1.16c0.302 2.334 0.474 5.034 0.474 7.773 0 26.13-15.659 48.602-38.105 58.545l-0.409 0.162z" />
<glyph unicode="&#xe91f;" glyph-name="phone-x" d="M585.36 566.64l73.4 73.36-73.4 73.36c-5.794 5.794-9.378 13.799-9.378 22.64 0 17.683 14.335 32.018 32.018 32.018 8.841 0 16.846-3.584 22.64-9.378v0l73.36-73.4 73.36 73.4c5.794 5.794 13.799 9.378 22.64 9.378 17.683 0 32.018-14.335 32.018-32.018 0-8.841-3.584-16.846-9.378-22.64v0l-73.36-73.36 73.36-73.36c5.794-5.794 9.378-13.799 9.378-22.64 0-17.683-14.335-32.018-32.018-32.018-8.841 0-16.846 3.584-22.64 9.378l-73.36 73.4-73.36-73.4c-5.794-5.794-13.799-9.378-22.64-9.378-17.683 0-32.018 14.335-32.018 32.018 0 8.841 3.584 16.846 9.378 22.64v0zM857.36 294.16l-188.96 84.68c-7.422 3.259-16.073 5.156-25.168 5.156-13.236 0-25.534-4.018-35.74-10.901l0.227 0.145c-1.137-0.755-2.115-1.491-3.048-2.28l0.048 0.040-97.24-83c-61.68 29.96-125.36 93.16-155.32 154.040l83.12 98.84c0.8 1 1.56 2 2.28 3.080 6.548 9.877 10.448 22.006 10.448 35.045 0 9.105-1.901 17.766-5.328 25.607l0.161-0.412v0.48l-84.68 188.76c-10.096 22.875-32.579 38.552-58.723 38.552-2.734 0-5.428-0.171-8.072-0.504l0.315 0.032c-111.012-15.024-195.68-109.183-195.68-223.117 0-0.142 0-0.284 0-0.425v0.022c0-317.6 258.4-576 576-576 0.12 0 0.262 0 0.403 0 113.934 0 208.092 84.669 222.988 194.518l0.129 1.163c0.302 2.334 0.474 5.034 0.474 7.773 0 26.13-15.659 48.602-38.105 58.545l-0.409 0.162z" />
<glyph unicode="&#xe920;" glyph-name="phone" d="M927.52 259.68c-15.024-111.012-109.183-195.68-223.117-195.68-0.142 0-0.284 0-0.425 0h0.022c-317.6 0-576 258.4-576 576 0 0.12 0 0.262 0 0.403 0 113.934 84.669 208.092 194.518 222.988l1.163 0.129c2.329 0.3 5.023 0.472 7.757 0.472 26.144 0 48.627-15.677 58.562-38.143l0.161-0.409 84.48-188.6v-0.48c3.336-7.499 5.279-16.249 5.279-25.452 0-12.982-3.865-25.061-10.507-35.149l0.149 0.241c-0.72-1.080-1.48-2.080-2.28-3.080l-83.28-98.72c29.96-60.88 93.64-124 155.32-154.040l97.36 82.84c0.885 0.749 1.863 1.485 2.882 2.166l0.118 0.074c9.978 6.738 22.276 10.756 35.512 10.756 9.095 0 17.746-1.897 25.58-5.317l-0.412 0.16 0.52-0.24 188.44-84.44c22.937-10.070 38.666-32.584 38.666-58.772 0-2.717-0.169-5.394-0.498-8.021l0.032 0.313z" />
<glyph unicode="&#xe921;" glyph-name="phosphor-logo" d="M608 832h-320c-17.673 0-32-14.327-32-32v0-512c0.205-176.648 143.351-319.795 319.98-320h0.020c17.673 0 32 14.327 32 32v0 256c159.058 0 288 128.942 288 288s-128.942 288-288 288v0zM544 34c-115.947 15.244-206.736 106.047-221.82 220.7l-0.14 1.3h221.96zM544 410l-201.28 358h201.28zM608 320v448c123.712 0 224-100.288 224-224s-100.288-224-224-224v0z" />
<glyph unicode="&#xe922;" glyph-name="pi" d="M832 832h-640c-35.346 0-64-28.654-64-64v0-640c0-35.346 28.654-64 64-64v0h640c35.346 0 64 28.654 64 64v0 640c0 35.346-28.654 64-64 64v0zM688 288c26.51 0 48 21.49 48 48v0c0 17.673 14.327 32 32 32s32-14.327 32-32v0c0-61.856-50.144-112-112-112s-112 50.144-112 112v0 240h-128v-320c0-17.673-14.327-32-32-32s-32 14.327-32 32v0 320h-32c-53.019 0-96-42.981-96-96v0c0-17.673-14.327-32-32-32s-32 14.327-32 32v0c0 88.366 71.634 160 160 160v0h416c17.673 0 32-14.327 32-32s-14.327-32-32-32v0h-128v-240c0-26.51 21.49-48 48-48v0z" />
<glyph unicode="&#xe923;" glyph-name="piano-keys" d="M832 832h-640c-35.346 0-64-28.654-64-64v0-640c0-35.346 28.654-64 64-64v0h640c35.346 0 64 28.654 64 64v0 640c0 35.346-28.654 64-64 64v0zM352 128h-160v640h96v-384c0-17.673 14.327-32 32-32v0h32zM608 128h-192v224h32c17.673 0 32 14.327 32 32v0 384h64v-384c0-17.673 14.327-32 32-32v0h32zM832 128h-160v224h32c17.673 0 32 14.327 32 32v0 384h96v-640z" />
<glyph unicode="&#xe924;" glyph-name="picnic-table" d="M587.4 576l58.16-128h-267.12l58.16 128zM928 736v-576c0-35.346-28.654-64-64-64v0h-704c-35.346 0-64 28.654-64 64v0 576c0 35.346 28.654 64 64 64v0h704c35.346 0 64-28.654 64-64v0zM832 416c0 17.673-14.327 32-32 32v0h-84l-58.32 128h46.32c17.673 0 32 14.327 32 32s-14.327 32-32 32v0h-384c-17.673 0-32-14.327-32-32s14.327-32 32-32v0h46.32l-58.32-128h-84c-17.673 0-32-14.327-32-32s14.327-32 32-32v0h55.040l-52-114.76c-2.040-4.093-3.233-8.916-3.233-14.017 0-17.673 14.327-32 32-32 13.172 0 24.485 7.958 29.393 19.329l0.080 0.208 64 141.24h325.36l64.2-141.24c5.316-10.733 16.195-17.983 28.767-17.983 17.673 0 32 14.327 32 32 0 4.501-0.929 8.785-2.607 12.671l0.080-0.208-52 114.76h54.92c17.673 0 32 14.327 32 32v0z" />
<glyph unicode="&#xe925;" glyph-name="picture-in-picture" d="M864 768h-704c-35.346 0-64-28.654-64-64v0-512c0-35.346 28.654-64 64-64v0h704c35.346 0 64 28.654 64 64v0 512c0 35.346-28.654 64-64 64v0zM864 192h-320v256h320v-256z" />
<glyph unicode="&#xe926;" glyph-name="piggy-bank" d="M904 607.68c-1.6 4-3.28 8-5 12-26.736 60.67-68.027 110.734-119.585 147.264l-1.095 0.736h85.68c17.673 0 32 14.327 32 32s-14.327 32-32 32v0h-416c-184.456-0.242-335.695-142.131-350.794-322.717l-0.086-1.283c-56.037-14.275-96.861-64.174-97.12-123.651v-0.029c0-17.673 14.327-32 32-32s32 14.327 32 32v0c0.016 24.463 13.755 45.714 33.935 56.472l0.345 0.168c8.539-74.965 39.553-141.439 86.038-193.886l-0.318 0.366 50.24-140.64c9.104-24.972 32.644-42.48 60.273-42.48 0.016 0 0.033 0 0.049 0h50.877c0.002 0 0.004 0 0.007 0 27.63 0 51.17 17.508 60.131 42.035l0.142 0.445 7.68 21.52h229.2l7.68-21.52c9.104-24.972 32.644-42.48 60.273-42.48 0.002 0 0.005 0 0.007 0h50.88c0.002 0 0.004 0 0.007 0 27.63 0 51.17 17.508 60.131 42.035l0.142 0.445 64.84 181.52h9.44c53.019 0 96 42.981 96 96v0 128c0 0.004 0 0.009 0 0.014 0 50.203-38.536 91.406-87.642 95.641l-0.358 0.025zM608 672h-160c-17.673 0-32 14.327-32 32s14.327 32 32 32v0h160c17.673 0 32-14.327 32-32s-14.327-32-32-32v0zM720 448c-26.51 0-48 21.49-48 48s21.49 48 48 48c26.51 0 48-21.49 48-48v0c0-26.51-21.49-48-48-48v0z" />
<glyph unicode="&#xe927;" glyph-name="pill" d="M865.72 801.6c-38.559 38.554-91.825 62.399-150.66 62.399s-112.101-23.846-150.66-62.4l-406-405.96c-37.416-38.351-60.496-90.838-60.496-148.716 0-117.659 95.381-213.040 213.040-213.040 57.888 0 110.383 23.088 148.78 60.558l-0.043-0.042 406.040 405.96c38.482 38.577 62.277 91.82 62.277 150.62s-23.795 112.043-62.281 150.624l0.004-0.004zM820.44 545.6l-203-202.96-210.76 210.72 203 203c26.842 26.239 63.605 42.429 104.149 42.429 82.313 0 149.040-66.727 149.040-149.040 0-40.544-16.189-77.307-42.456-104.177l0.027 0.028zM758.72 630.64c5.798-5.792 9.385-13.797 9.385-22.64s-3.587-16.848-9.385-22.64v0l-96-96c-5.791-5.786-13.787-9.364-22.62-9.364-17.675 0-32.004 14.329-32.004 32.004 0 8.843 3.586 16.847 9.383 22.64l96 96c5.79 5.786 13.787 9.365 22.62 9.365s16.83-3.579 22.62-9.365v0z" />
<glyph unicode="&#xe928;" glyph-name="ping-pong" d="M960 176c-1.652 19.348-11.686 36.061-26.41 46.67l-0.19 0.13-152 108.6 68 67.8c29.001 28.762 46.955 68.625 46.955 112.68 0 10.784-1.076 21.316-3.126 31.496l0.171-1.016c-19.662 94.266-70.41 174.346-140.826 230.958l-0.774 0.602c-69.283 56.135-158.507 90.121-255.669 90.121-2.043 0-4.083-0.015-6.119-0.045l0.308 0.004c-216.243-3.773-390.547-178.077-394.315-393.963l-0.005-0.357c-0.020-1.5-0.031-3.272-0.031-5.047 0-97.311 34.027-186.674 90.833-256.841l-0.601 0.767c57.214-71.19 137.294-121.938 228.97-141.146l2.59-0.454c9.16-1.877 19.688-2.951 30.466-2.951 44.059 0 83.926 17.952 112.683 46.941l0.010 0.010 67.8 68 108.6-152c10.651-15.027 27.324-25.182 46.429-26.941l0.251-0.019c1.76 0 3.52-0.2 5.28-0.2 17.67 0.008 33.664 7.176 45.24 18.76l106.56 106.56c11.814 11.619 19.135 27.775 19.135 45.641 0 1.844-0.078 3.67-0.231 5.474l0.016-0.235zM789.6 64l-130.52 182.76c-5.373 7.449-13.729 12.459-23.282 13.272l-0.118 0.008q-1.32 0-2.64 0c-0.007 0-0.016 0-0.025 0-8.83 0-16.825-3.577-22.615-9.36v0l-94.52-94.52c-17.189-17.438-41.068-28.24-67.471-28.24-6.356 0-12.567 0.626-18.572 1.82l0.603-0.1c-19.045 3.851-35.527 8.683-51.404 14.738l2.204-0.738 435.2 435.2c5.31-13.666 10.142-30.147 13.641-47.115l0.359-2.085c1.096-5.407 1.723-11.621 1.723-17.983 0-26.399-10.804-50.274-28.232-67.446l-0.012-0.011-94.72-94.4c-5.802-5.793-9.392-13.801-9.392-22.647 0-10.691 5.243-20.157 13.297-25.969l0.094-0.065 182.8-130.56z" />
<glyph unicode="&#xe929;" glyph-name="pint-glass" d="M824 853.24c-5.889 6.614-14.428 10.76-23.935 10.76-0.023 0-0.046 0-0.069 0h-575.996c-0.003 0-0.007 0-0.011 0-17.673 0-32-14.327-32-32 0-1.41 0.091-2.799 0.268-4.161l-0.017 0.161 92.6-772c4.113-31.736 30.972-56 63.498-56 0.022 0 0.044 0 0.065 0h327.197c0.005 0 0.011 0 0.018 0 32.654 0 59.596 24.454 63.511 56.048l0.031 0.312 92.6 771.64c0.164 1.217 0.258 2.625 0.258 4.054 0 8.141-3.040 15.572-8.047 21.22l0.029-0.033zM764 800l-11.6-96h-480.8l-11.6 96z" />
<glyph unicode="&#xe92a;" glyph-name="pinterest-logo" d="M960 445.2c-1.52-225.96-185.84-410.92-411.76-413.16-1.306-0.015-2.848-0.023-4.392-0.023-35.277 0-69.531 4.384-102.245 12.638l2.877-0.615c-7.020 1.795-12.127 8.063-12.127 15.524 0 1.391 0.177 2.74 0.511 4.027l-0.024-0.111 34.56 138.2c31.62-16.191 68.979-25.68 108.554-25.68 0.016 0 0.032 0 0.048 0h-0.002c148 0 266.8 133.8 255.24 293.44-11.649 149.428-135.769 266.268-287.179 266.268-159.058 0-288-128.942-288-288 0-38.813 7.678-75.833 21.598-109.624l-0.699 1.916c4.859-11.867 16.318-20.075 29.695-20.075 4.84 0 9.429 1.074 13.541 2.998l-0.196-0.082c11.021 5.431 18.471 16.585 18.471 29.479 0 4.502-0.908 8.792-2.551 12.696l0.080-0.216c-10.081 24.569-15.933 53.086-15.933 82.97 0 123.712 100.288 224 224 224 117.817 0 214.39-90.959 223.325-206.484l0.048-0.766c8.56-122.12-80.52-224.52-191.44-224.52-34.198 0.017-66.156 9.596-93.348 26.207l0.788-0.447 59.6 238.48c0.526 2.171 0.827 4.664 0.827 7.228 0 17.673-14.327 32-32 32-14.724 0-27.125-9.944-30.854-23.483l-0.053-0.225-107.44-429.8c-1.794-7.022-8.063-12.13-15.525-12.13-2.671 0-5.189 0.655-7.403 1.812l0.088-0.042c-133.424 71.078-222.705 209.295-222.705 368.365 0 1.587 0.009 3.173 0.027 4.756l-0.002-0.241c2.4 225.44 186.68 409.44 412 411.52 1.192 0.012 2.6 0.019 4.010 0.019 229.75 0 416-186.25 416-416 0-0.992-0.003-1.982-0.010-2.972l0.001 0.153z" />
<glyph unicode="&#xe92b;" glyph-name="pinwheel" d="M918.64 86.64l-193.68 193.64c4.4 1.32 8.76 2.72 13.080 4.28 92.884 34.537 157.859 122.434 157.859 225.506 0 29.399-5.286 57.563-14.959 83.594l0.54-1.66c-4.606 12.383-16.325 21.046-30.067 21.046-3.923 0-7.681-0.706-11.155-1.998l0.221 0.072-176.8-64.32c1.28 2.48 2.56 4.96 3.72 7.52 14.214 29.744 22.516 64.649 22.516 101.492 0 132.548-107.452 240-240 240-29.392 0-57.55-5.284-83.576-14.953l1.66 0.54c-12.458-4.567-21.187-16.323-21.187-30.118 0-3.904 0.699-7.645 1.979-11.104l-0.072 0.222 64.36-176.88c-2.52 1.28-5 2.6-7.56 4-29.711 14.178-64.573 22.459-101.37 22.459-132.548 0-240-107.452-240-240 0-29.43 5.297-57.624 14.991-83.678l-0.541 1.659c4.606-12.383 16.325-21.046 30.067-21.046 3.923 0 7.681 0.706 11.155 1.998l-0.221-0.072 176.8 64.36c-1.28-2.52-2.56-5-3.72-7.56-14.178-29.711-22.459-64.573-22.459-101.37 0-132.548 107.452-240 240-240 29.43 0 57.624 5.297 83.678 14.991l-1.659-0.541c12.383 4.606 21.046 16.325 21.046 30.067 0 3.923-0.706 7.681-1.998 11.155l0.072-0.221-64.32 176.72c2.48-1.24 4.96-2.48 7.52-3.64 26.291-12.614 56.974-20.671 89.352-22.297l0.568-0.023 228.88-228.92c5.794-5.794 13.799-9.378 22.64-9.378 17.683 0 32.018 14.335 32.018 32.018 0 8.841-3.584 16.846-9.378 22.64v0zM436 144.52c-60.553 28.694-101.683 89.314-101.683 159.54 0 64.298 34.48 120.543 85.958 151.255l0.806 0.445 118.4-325.32c-8.811-1.578-18.953-2.48-29.306-2.48-26.937 0-52.449 6.107-75.224 17.013l1.050-0.453zM609.6 581.52c-15.416-32.778-39.621-59.272-69.592-77.076l-0.808-0.444-118.44 325.48c8.765 1.547 18.856 2.431 29.153 2.431 97.202 0 176-78.798 176-176 0-27.020-6.089-52.618-16.969-75.497l0.456 1.065z" />
<glyph unicode="&#xe92c;" glyph-name="pipe-wrench" d="M881.12 740l-0.68 0.68-179.6 169.12c-11.539 11.335-27.371 18.332-44.838 18.332-17.627 0-33.589-7.126-45.164-18.654l0.002 0.002-178.16-176.96-6.16 6.24c-17.703 16.173-41.369 26.080-67.349 26.080-55.228 0-100-44.772-100-100 0-25.89 9.839-49.483 25.982-67.242l-0.073 0.082 5.84-5.92-80.16-79.76c-11.585-11.582-18.75-27.584-18.75-45.26s7.166-33.678 18.75-45.26l50.72-50.72c11.574-11.537 27.544-18.67 45.18-18.67s33.606 7.133 45.182 18.672l-0.002-0.002 79.72 78.6 48.44-49.36-258.76-261.48c-20.12-18.358-32.694-44.69-32.694-73.959 0-55.228 44.772-100 100-100 29.319 0 55.69 12.617 73.982 32.718l0.072 0.081 354.68 357.4c11.549 11.576 18.69 27.554 18.69 45.2s-7.141 33.624-18.692 45.201l0.001-0.001-142.76 144.2 51.72 50.64 0.4-0.36 149.36-141.24c11.543-11.359 27.392-18.372 44.878-18.372 17.667 0 33.661 7.158 45.242 18.732l14.84 14.84c28.956 28.955 46.866 68.956 46.866 113.14s-17.91 84.185-46.866 113.14v0zM306.76 416l-50.76 50.68 80 79.52 50.76-51.44zM836 558.88l-15-14.88c-0.195 0.235-0.405 0.445-0.632 0.634l-0.008 0.006-149.6 141.36c-11.526 11.112-27.23 17.957-44.533 17.957-17.545 0-33.447-7.038-45.035-18.445l0.008 0.008-51.72-50.68-51.76 52.24 178.28 176.92 180.2-169.68c17.181-17.34 27.796-41.21 27.796-67.559 0-26.509-10.745-50.508-28.116-67.881v0z" />
<glyph unicode="&#xe92d;" glyph-name="pipe" d="M928 544h-96v192h96c17.673 0 32 14.327 32 32s-14.327 32-32 32v0h-104.68c-11.254 19.235-31.797 31.96-55.314 32h-64.006c-23.523-0.040-44.066-12.765-55.157-31.698l-0.163-0.302h-72.68c-229.65-0.25-415.75-186.35-416-415.976v-72.664c-19.246-11.261-31.975-31.821-32-55.356v-64.004c0.025-23.539 12.754-44.099 31.698-55.197l0.302-0.163v-104.64c0-17.673 14.327-32 32-32s32 14.327 32 32v0 96h192v-96c0-17.673 14.327-32 32-32s32 14.327 32 32v0 104.64c19.246 11.261 31.975 31.821 32 55.356v64.004c-0.025 23.539-12.754 44.099-31.698 55.197l-0.302 0.163v72.64c0 53.019 42.981 96 96 96v0h72.68c11.254-19.235 31.797-31.96 55.314-32h64.006c23.523 0.040 44.066 12.765 55.157 31.698l0.163 0.302h104.68c17.673 0 32 14.327 32 32s-14.327 32-32 32v0zM448 192h-256v64h256zM704 512v256h64v-255.2c0-0.28 0-0.52 0-0.8z" />
<glyph unicode="&#xe92e;" glyph-name="pix-logo" d="M941.36 402.88l-78.24-78.2c-2.851-2.849-6.773-4.627-11.11-4.68h-166.73l-128 128 128 128h166.72c4.405-0.008 8.392-1.795 11.28-4.68l78.24-78.2c11.454-11.56 18.531-27.473 18.531-45.040 0-17.646-7.142-33.624-18.692-45.202l0.001 0.001zM268.2 640h83.8c8.825-0.004 16.814-3.58 22.6-9.36l137.4-137.36 137.4 137.36c5.786 5.78 13.775 9.356 22.599 9.36h84.001c0.004 0 0.008 0 0.013 0 8.837 0 16 7.163 16 16 0 4.421-1.793 8.424-4.692 11.32v0l-210 210.040c-11.568 11.501-27.514 18.611-45.12 18.611s-33.552-7.109-45.123-18.614l-210.197-210.037c-2.899-2.896-4.693-6.899-4.693-11.32 0-8.837 7.163-16 16-16 0.004 0 0.009 0 0.013 0h-0.001zM756 256h-84c-8.825 0.004-16.814 3.58-22.6 9.36v0l-137.4 137.4-137.4-137.4c-5.786-5.78-13.775-9.356-22.599-9.36h-84.001c-0.004 0-0.008 0-0.013 0-8.837 0-16-7.163-16-16 0-4.421 1.793-8.424 4.692-11.32v0l210-210.040c11.568-11.501 27.514-18.611 45.12-18.611s33.552 7.109 45.123 18.614l209.997 210.037c2.902 2.897 4.697 6.901 4.697 11.325 0 8.702-6.947 15.781-15.597 15.995h-0.020zM466.96 448l-128 128h-166.96c-4.405-0.008-8.392-1.795-11.28-4.68v0l-78.080-78.2c-11.501-11.568-18.611-27.514-18.611-45.12s7.109-33.552 18.614-45.123l78.237-78.197c2.851-2.849 6.773-4.627 11.11-4.68h166.73z" />
<glyph unicode="&#xe92f;" glyph-name="pizza" d="M958.16 708c-4.162 16.896-14.637 30.83-28.721 39.441l-0.279 0.159c-118.94 73.075-262.995 116.359-417.16 116.359s-298.22-43.284-420.675-118.363l3.515 2.004c-18.596-11.418-30.812-31.644-30.812-54.722 0-12.304 3.472-23.798 9.49-33.554l-0.158 0.276 384-629.080c11.419-18.594 31.643-30.808 54.72-30.808s43.301 12.214 54.561 30.53l0.159 0.278 384 629.080c5.82 9.389 9.269 20.778 9.269 32.973 0 5.479-0.696 10.796-2.006 15.866l0.096-0.439zM737.76 433.88c-19.421 9.035-42.16 14.305-66.129 14.305-88.366 0-160-71.634-160-160 0-50.66 23.544-95.821 60.287-125.137l0.322-0.248-60.24-98.8-126 206.28c56.043 25.704 94.266 81.325 94.266 145.873 0 88.366-71.634 160-160 160-37.829 0-72.592-13.128-99.982-35.078l0.316 0.244-25.4 41.64c90.208 55.909 199.624 89.045 316.78 89.045s226.572-33.136 319.388-90.547l-2.608 1.502z" />
<glyph unicode="&#xe930;" glyph-name="placeholder" d="M832 832h-640c-35.346 0-64-28.654-64-64v0-640c0-35.346 28.654-64 64-64v0h640c35.346 0 64 28.654 64 64v0 640c0 35.346-28.654 64-64 64v0zM749.24 210.76c-5.79-5.786-13.787-9.365-22.62-9.365s-16.83 3.579-22.62 9.365l-429.24 429.24c-5.449 5.727-8.801 13.492-8.801 22.041 0 17.673 14.327 32 32 32 8.548 0 16.314-3.352 22.054-8.813l429.227-429.227c5.786-5.79 9.365-13.787 9.365-22.62s-3.579-16.83-9.365-22.62v0z" />
<glyph unicode="&#xe931;" glyph-name="planet" d="M980.44 717.28c-30.6 52.76-111.4 64.64-234 34.64-64.107 49.768-145.712 79.785-234.327 79.785-212.077 0-384-171.923-384-384 0-17.241 1.136-34.217 3.338-50.857l-0.211 1.952c-110.88-114.8-109.28-182.8-87.64-220.080 20.4-35.36 62.96-50.72 118.96-50.72 41.3 0.879 80.854 6.663 118.631 16.792l-3.471-0.792c64.088-49.719 145.653-79.703 234.221-79.703 212.077 0 384 171.923 384 384 0 17.17-1.127 34.077-3.311 50.651l0.21-1.948c50.040 52 83.32 101.4 94.64 143.68 7.84 29.28 5.48 55.040-7.040 76.6zM925.68 657.28c-24.44-91.12-194.6-229.24-350.080-318.56-271.24-156-454.48-166.080-476.64-128-5.84 10.040-2.6 28.96 8.88 52 12.181 22.875 25.831 42.613 41.453 60.592l-0.333-0.392c7.707-22.122 16.12-40.848 25.918-58.705l-0.998 1.985c2.731-5.142 8.052-8.584 14.178-8.584 0.642 0 1.275 0.038 1.898 0.111l-0.075-0.007c25.919 3.237 48.899 7.892 71.235 14.094l-3.435-0.814c84.92 22.2 186.52 65.92 286.080 123.12s188 122.64 249.8 184.6c15.929 15.762 30.748 32.559 44.381 50.315l0.859 1.165c1.969 2.629 3.152 5.944 3.152 9.536 0 3.169-0.921 6.123-2.511 8.608l0.038-0.064c-11.633 18.816-23.635 35.093-36.812 50.327l0.412-0.487c56.84 9.4 109.48 8.68 122-12.96 3.68-6.28 3.88-15.68 0.6-27.92z" />
<glyph unicode="&#xe932;" glyph-name="plant" d="M821.64 323.72c-36.053-22.255-79.754-35.441-126.534-35.441-0.276 0-0.552 0-0.828 0.001h0.043c-39.592 0.324-77.162 8.619-111.301 23.355l1.861-0.715c-25.566-35.717-40.881-80.289-40.881-128.437 0-0.184 0-0.368 0.001-0.551v0.028-117.96c0-0.021 0-0.046 0-0.070 0-17.673-14.327-32-32-32-0.746 0-1.486 0.026-2.219 0.076l0.099-0.005c-16.808 1.507-29.882 15.525-29.882 32.597 0 0.142 0.001 0.283 0.003 0.425v-0.021 49.76l-154.48 154.48c-21.299-8.193-45.934-13.032-71.672-13.239l-0.088-0.001c-0.135 0-0.294-0.001-0.453-0.001-35.207 0-68.095 9.927-96.019 27.135l0.792-0.454c-87.16 52.96-134.080 174.84-125 326.16 0.975 16.205 13.875 29.105 29.991 30.076l0.089 0.004c151.32 8.92 273.2-37.84 326-125 16.782-27.215 26.724-60.197 26.724-95.501 0-6.487-0.336-12.896-0.991-19.21l0.066 0.79c-0.687-8.265-7.565-14.713-15.948-14.713-4.569 0-8.69 1.915-11.605 4.986l-0.007 0.007-76.8 80.4c-5.727 5.449-13.492 8.801-22.041 8.801-17.673 0-32-14.327-32-32 0-8.548 3.352-16.314 8.813-22.054l-0.013 0.013 215.52-221c0.24 3.12 0.52 6.24 0.84 9.32 7.483 61.796 34.522 116.2 74.646 157.93l-0.086-0.090 202.36 213.84c5.797 5.793 9.384 13.797 9.384 22.64 0 17.675-14.329 32.004-32.004 32.004-8.833 0-16.829-3.578-22.62-9.364v0l-196-207.28c-2.924-3.092-7.054-5.016-11.634-5.016-7.406 0-13.637 5.032-15.46 11.864l-0.025 0.112c-18.96 69.92-10.6 139.52 25.6 199.28 71.44 117.92 237.68 181.040 444.72 168.88 16.205-0.975 29.105-13.875 30.076-29.991l0.004-0.089c12-207.080-51.12-373.32-169.040-444.76z" />
<glyph unicode="&#xe933;" glyph-name="play-circle" d="M512 864c-229.75 0-416-186.25-416-416s186.25-416 416-416c229.75 0 416 186.25 416 416v0c-0.25 229.65-186.35 415.75-415.976 416h-0.024zM674.2 421.68l-208-144c-5.083-3.554-11.393-5.68-18.2-5.68-17.673 0-32 14.327-32 32v0 288c0 17.673 14.327 32 32 32 6.807 0 13.117-2.125 18.304-5.748l-0.104 0.069 208-144c8.384-5.853 13.8-15.454 13.8-26.32s-5.416-20.467-13.696-26.251l-0.104-0.069z" />
<glyph unicode="&#xe934;" glyph-name="play-pause" d="M736 704v-512c0-17.673-14.327-32-32-32s-32 14.327-32 32v0 512c0 17.673 14.327 32 32 32s32-14.327 32-32v0zM896 736c-17.673 0-32-14.327-32-32v0-512c0-17.673 14.327-32 32-32s32 14.327 32 32v0 512c0 17.673-14.327 32-32 32v0zM546.68 501.36l-352.76 224.6c-9.697 6.285-21.552 10.022-34.281 10.022-35.057 0-63.493-28.346-63.639-63.368v-449.214c0.056-23.766 13.197-44.45 32.597-55.235l0.323-0.165c8.862-4.958 19.445-7.878 30.711-7.878 12.728 0 24.586 3.727 34.541 10.15l-0.251-0.152 352.76 224.6c17.745 11.391 29.333 31.022 29.333 53.36s-11.589 41.969-29.082 53.209l-0.251 0.151z" />
<glyph unicode="&#xe935;" glyph-name="play" d="M960 448c0-0.045 0-0.099 0-0.153 0-22.74-12.056-42.665-30.125-53.73l-0.275-0.157-576.32-352.56c-9.513-5.914-21.058-9.42-33.422-9.42-11.53 0-22.349 3.049-31.692 8.385l0.314-0.165c-19.496 11.053-32.444 31.651-32.48 55.275v705.045c0.036 23.63 12.984 44.227 32.166 55.116l0.314 0.164c9.030 5.171 19.848 8.22 31.378 8.22 12.364 0 23.909-3.506 33.695-9.578l-0.273 0.158 576.32-352.56c18.344-11.222 30.4-31.147 30.4-53.887 0-0.054 0-0.107 0-0.161v0.008z" />
<glyph unicode="&#xe936;" glyph-name="playlist" d="M832 832h-640c-35.346 0-64-28.654-64-64v0-640c0-35.346 28.654-64 64-64v0h640c35.346 0 64 28.654 64 64v0 640c0 35.346-28.654 64-64 64v0zM256 672h512c17.673 0 32-14.327 32-32s-14.327-32-32-32v0h-512c-17.673 0-32 14.327-32 32s14.327 32 32 32v0zM256 480h288c17.673 0 32-14.327 32-32s-14.327-32-32-32v0h-288c-17.673 0-32 14.327-32 32s14.327 32 32 32v0zM416 224h-160c-17.673 0-32 14.327-32 32s14.327 32 32 32v0h160c17.673 0 32-14.327 32-32s-14.327-32-32-32v0zM830.36 437.88c-4.367-12.823-16.305-21.883-30.359-21.883-3.621 0-7.101 0.601-10.347 1.71l0.225-0.067-53.88 17.96v-179.6c0-0.009 0-0.019 0-0.030 0-53.019-42.981-96-96-96s-96 42.981-96 96c0 53.019 42.981 96 96 96 11.471 0 22.471-2.012 32.668-5.702l-0.668 0.211v133.52c0 0.001 0 0.002 0 0.002 0 17.673 14.327 32 32 32 3.62 0 7.1-0.601 10.345-1.709l-0.225 0.067 96-32c12.823-4.367 21.883-16.305 21.883-30.359 0-3.621-0.601-7.101-1.71-10.347l0.067 0.225z" />
<glyph unicode="&#xe937;" glyph-name="plug-charging" d="M896 736h-192v160c0 17.673-14.327 32-32 32s-32-14.327-32-32v0-160h-256v160c0 17.673-14.327 32-32 32v0c-12.84 0-32-9.080-32-34.16v-157.84h-189.8c-25.080 0-34.2-19.12-34.2-32 0-17.673 14.327-32 32-32v0h64v-352c0-88.366 71.634-160 160-160v0h128v-160c0-17.673 14.327-32 32-32s32 14.327 32 32v0 160h128c88.366 0 160 71.634 160 160v0 352h64c17.673 0 32 14.327 32 32s-14.327 32-32 32v0zM605.96 436.76l-48-128c-4.685-12.253-16.345-20.797-30-20.797-17.693 0-32.037 14.343-32.037 32.037 0 4.038 0.747 7.901 2.11 11.459l-0.074-0.219 32 84.76h-81.96c-17.673 0.001-31.999 14.327-31.999 32 0 4.038 0.748 7.901 2.113 11.459l-0.074-0.219 48 128c4.685 12.253 16.345 20.797 30 20.797 17.693 0 32.037-14.343 32.037-32.037 0-4.038-0.747-7.901-2.11-11.459l0.074 0.219-32-84.76h81.96c17.673-0.001 31.999-14.327 31.999-32 0-4.038-0.748-7.901-2.113-11.459l0.074 0.219z" />
<glyph unicode="&#xe938;" glyph-name="plug" d="M950.64 649.36l-137.4-137.36 105.4-105.36c5.794-5.794 9.378-13.799 9.378-22.64 0-17.683-14.335-32.018-32.018-32.018-8.841 0-16.846 3.584-22.64 9.378v0l-25.36 25.4-212-212c-28.955-28.956-68.956-46.866-113.14-46.866s-84.185 17.91-113.14 46.866v0l-62.72 62.96-196.36-196.36c-5.794-5.794-13.799-9.378-22.64-9.378-17.683 0-32.018 14.335-32.018 32.018 0 8.841 3.584 16.846 9.378 22.64v0l196.36 196.36-62.84 62.84c-28.956 28.955-46.866 68.956-46.866 113.14s17.91 84.185 46.866 113.14l212 212-25.4 25.36c-5.794 5.794-9.378 13.799-9.378 22.64 0 17.683 14.335 32.018 32.018 32.018 8.841 0 16.846-3.584 22.64-9.378v0l105.24-105.52 137.36 137.4c5.794 5.794 13.799 9.378 22.64 9.378 17.683 0 32.018-14.335 32.018-32.018 0-8.841-3.584-16.846-9.378-22.64v0l-137.4-137.36 146.76-146.76 137.36 137.4c5.794 5.794 13.799 9.378 22.64 9.378 17.683 0 32.018-14.335 32.018-32.018 0-8.841-3.584-16.846-9.378-22.64v0z" />
<glyph unicode="&#xe939;" glyph-name="plugs-connected" d="M354.28 820c-1.475 3.551-2.331 7.675-2.331 12 0 17.701 14.35 32.051 32.051 32.051 13.377 0 24.84-8.195 29.642-19.838l0.078-0.213 32-80c1.475-3.551 2.331-7.675 2.331-12 0-17.701-14.35-32.051-32.051-32.051-13.377 0-24.84 8.195-29.642 19.838l-0.078 0.213zM116 546.28l80-32c3.551-1.475 7.675-2.331 12-2.331 17.701 0 32.051 14.35 32.051 32.051 0 13.377-8.195 24.84-19.838 29.642l-0.213 0.078-80 32c-3.551 1.475-7.675 2.331-12 2.331-17.701 0-32.051-14.35-32.051-32.051 0-13.377 8.195-24.84 19.838-29.642l0.213-0.078zM908 349.72l-80 32c-3.551 1.475-7.675 2.331-12 2.331-17.701 0-32.051-14.35-32.051-32.051 0-13.377 8.195-24.84 19.838-29.642l0.213-0.078 80-32c3.551-1.475 7.675-2.331 12-2.331 17.701 0 32.051 14.35 32.051 32.051 0 13.377-8.195 24.84-19.838 29.642l-0.213 0.078zM637.72 156c-4.88 11.856-16.343 20.051-29.72 20.051-17.701 0-32.051-14.35-32.051-32.051 0-4.325 0.856-8.449 2.409-12.213l-0.078 0.213 32-80c4.88-11.856 16.343-20.051 29.72-20.051 17.701 0 32.051 14.35 32.051 32.051 0 4.325-0.856 8.449-2.409 12.213l0.078-0.213zM951.64 885.92c-5.853 6.234-14.147 10.117-23.348 10.117-8.849 0-16.859-3.592-22.651-9.396l-209.641-209.641-21.52 21.52c-23.168 23.193-55.189 37.541-90.56 37.541s-67.391-14.347-90.559-37.539l-0.001-0.001-68.8-68.68c-2.899-2.896-4.693-6.899-4.693-11.32s1.793-8.424 4.692-11.32l246.8-246.64c2.896-2.899 6.899-4.693 11.32-4.693s8.424 1.793 11.32 4.692v0l66.96 66.96c23.445 23.006 38.273 54.723 39.236 89.901l0.004 0.179c0.015 0.731 0.024 1.592 0.024 2.456 0 35.259-14.337 67.169-37.499 90.219l-0.005 0.005-21.52 21.48 208.8 208.68c6.159 5.983 9.981 14.343 9.981 23.595 0 8.419-3.164 16.1-8.369 21.916l0.028-0.032zM342.56 598.64c-5.791 5.793-13.793 9.376-22.631 9.376-9.191 0-17.477-3.875-23.313-10.080l-0.015-0.017c-5.177-5.785-8.341-13.465-8.341-21.885 0-9.253 3.822-17.613 9.973-23.588l24.448-24.448-61.32-61.24c-23.096-23.044-37.385-54.906-37.385-90.106 0-0.891 0.009-1.78 0.027-2.666l-0.002 0.133c0.906-35.352 15.682-67.086 39.063-90.103l0.017-0.017 20-19.76-209.12-208.76c-6.127-5.972-9.927-14.305-9.927-23.526 0-7.953 2.827-15.246 7.532-20.929l-0.044 0.055c5.902-6.819 14.569-11.107 24.238-11.107 8.844 0 16.85 3.588 22.642 9.387v0l209.6 209.64 21.48-21.52c23.215-23.109 55.229-37.395 90.58-37.395s67.366 14.286 90.585 37.4l-0.005-0.005 61.36 61.28 25.36-25.4c5.794-5.794 13.799-9.378 22.64-9.378 17.683 0 32.018 14.335 32.018 32.018 0 8.841-3.584 16.846-9.378 22.64v0z" />
<glyph unicode="&#xe93a;" glyph-name="plugs" d="M598.64 361.36l-73.4-73.36 73.4-73.36c5.794-5.794 9.378-13.799 9.378-22.64 0-17.683-14.335-32.018-32.018-32.018-8.841 0-16.846 3.584-22.64 9.378v0l-25.36 25.4-93.24-93.28c-23.191-23.112-55.187-37.402-90.52-37.402s-67.329 14.29-90.524 37.405l0.004-0.004-21.48 21.52-113.6-113.64c-5.794-5.794-13.799-9.378-22.64-9.378-17.683 0-32.018 14.335-32.018 32.018 0 8.841 3.584 16.846 9.378 22.64v0l113.64 113.6-21.52 21.48c-23.17 23.165-37.501 55.169-37.501 90.52s14.331 67.356 37.501 90.52l93.28 93.24-25.4 25.36c-5.794 5.794-9.378 13.799-9.378 22.64 0 17.683 14.335 32.018 32.018 32.018 8.841 0 16.846-3.584 22.64-9.378v0l73.36-73.4 73.36 73.4c5.794 5.794 13.799 9.378 22.64 9.378 17.683 0 32.018-14.335 32.018-32.018 0-8.841-3.584-16.846-9.378-22.64l-73.4-73.36 82.76-82.76 73.36 73.4c5.794 5.794 13.799 9.378 22.64 9.378 17.683 0 32.018-14.335 32.018-32.018 0-8.841-3.584-16.846-9.378-22.64v0zM950.64 886.64c-5.792 5.798-13.797 9.385-22.64 9.385s-16.848-3.587-22.64-9.385l-113.6-113.64-21.48 21.52c-23.187 23.121-55.184 37.418-90.52 37.418s-67.333-14.297-90.523-37.421l-93.237-93.277-25.36 25.4c-5.794 5.794-13.799 9.378-22.64 9.378-17.683 0-32.018-14.335-32.018-32.018 0-8.841 3.584-16.846 9.378-22.64v0l320-320c5.794-5.794 13.799-9.378 22.64-9.378 17.683 0 32.018 14.335 32.018 32.018 0 8.841-3.584 16.846-9.378 22.64v0l-25.4 25.36 93.28 93.24c23.17 23.165 37.501 55.169 37.501 90.52s-14.331 67.356-37.501 90.52v0l-21.52 21.48 113.64 113.6c5.798 5.792 9.385 13.797 9.385 22.64s-3.587 16.848-9.385 22.64v0z" />
<glyph unicode="&#xe93b;" glyph-name="plus-circle" d="M512 864c-229.75 0-416-186.25-416-416s186.25-416 416-416c229.75 0 416 186.25 416 416v0c-0.296 229.631-186.369 415.704-415.972 416h-0.028zM672 416h-128v-128c0-17.673-14.327-32-32-32s-32 14.327-32 32v0 128h-128c-17.673 0-32 14.327-32 32s14.327 32 32 32v0h128v128c0 17.673 14.327 32 32 32s32-14.327 32-32v0-128h128c17.673 0 32-14.327 32-32s-14.327-32-32-32v0z" />
<glyph unicode="&#xe93c;" glyph-name="plus-minus" d="M832 832h-640c-35.346 0-64-28.654-64-64v0-640c0-35.346 28.654-64 64-64v0h640c35.346 0 64 28.654 64 64v0 640c0 35.346-28.654 64-64 64v0zM224 576c0 17.673 14.327 32 32 32v0h64v64c0 17.673 14.327 32 32 32s32-14.327 32-32v0-64h64c17.673 0 32-14.327 32-32s-14.327-32-32-32v0h-64v-64c0-17.673-14.327-32-32-32s-32 14.327-32 32v0 64h-64c-17.673 0-32 14.327-32 32v0zM320 192c-0.007 0-0.016 0-0.025 0-17.673 0-32 14.327-32 32 0 8.843 3.587 16.848 9.385 22.64v0l384 384c5.794 5.794 13.799 9.378 22.64 9.378 17.683 0 32.018-14.335 32.018-32.018 0-8.841-3.584-16.846-9.378-22.64l-384-384c-5.79-5.783-13.785-9.36-22.615-9.36-0.009 0-0.018 0-0.027 0h0.001zM768 224h-192c-17.673 0-32 14.327-32 32s14.327 32 32 32v0h192c17.673 0 32-14.327 32-32s-14.327-32-32-32v0z" />
<glyph unicode="&#xe93d;" glyph-name="plus-square" d="M832 832h-640c-35.346 0-64-28.654-64-64v0-640c0-35.346 28.654-64 64-64v0h640c35.346 0 64 28.654 64 64v0 640c0 35.346-28.654 64-64 64v0zM672 416h-128v-128c0-17.673-14.327-32-32-32s-32 14.327-32 32v0 128h-128c-17.673 0-32 14.327-32 32s14.327 32 32 32v0h128v128c0 17.673 14.327 32 32 32s32-14.327 32-32v0-128h128c17.673 0 32-14.327 32-32s-14.327-32-32-32v0z" />
<glyph unicode="&#xe93e;" glyph-name="plus" d="M832 832h-640c-35.346 0-64-28.654-64-64v0-640c0-35.346 28.654-64 64-64v0h640c35.346 0 64 28.654 64 64v0 640c0 35.346-28.654 64-64 64v0zM736 416h-192v-192c0-17.673-14.327-32-32-32s-32 14.327-32 32v0 192h-192c-17.673 0-32 14.327-32 32s14.327 32 32 32v0h192v192c0 17.673 14.327 32 32 32s32-14.327 32-32v0-192h192c17.673 0 32-14.327 32-32s-14.327-32-32-32v0z" />
<glyph unicode="&#xe93f;" glyph-name="poker-chip" d="M512 864c-229.75 0-416-186.25-416-416s186.25-416 416-416c229.75 0 416 186.25 416 416v0c-0.25 229.65-186.35 415.75-415.976 416h-0.024zM241.6 673.12l68.28-68.28c-27.208-34.549-45.801-77.084-51.863-123.557l-0.137-1.283h-96.4c6.909 74.26 36.028 140.65 80.56 193.658l-0.44-0.538zM161.48 416h96.6c6.199-47.756 24.792-90.291 52.414-125.385l-0.414 0.545-68.48-68.28c-44.092 52.47-73.211 118.86-80.015 191.73l-0.105 1.39zM480 97.48c-74.248 6.873-140.639 35.951-193.662 80.442l0.542-0.442 68.28 68.28c34.572-27.094 77.112-45.581 123.57-51.547l1.27-0.133zM480 701.92c-47.756-6.199-90.291-24.792-125.385-52.414l0.545 0.414-68.28 68.48c52.481 44.049 118.872 73.127 191.735 79.896l1.385 0.104zM862.52 480h-96.6c-6.137 47.739-24.663 90.276-52.218 125.393l0.418-0.553 68.28 68.28c44.092-52.47 73.211-118.86 80.015-191.73l0.105-1.39zM544 798.52c74.248-6.873 140.639-35.951 193.662-80.442l-0.542 0.442-68.28-68.4c-34.549 27.208-77.084 45.801-123.557 51.863l-1.283 0.137zM544 97.48v96.6c47.739 6.137 90.276 24.663 125.393 52.218l-0.553-0.418 68.28-68.28c-52.47-44.092-118.86-73.211-191.73-80.015l-1.39-0.105zM782.4 222.88l-68.28 68.28c27.137 34.564 45.663 77.101 51.666 123.565l0.134 1.275h96.6c-6.909-74.26-36.028-140.65-80.56-193.658l0.44 0.538z" />
<glyph unicode="&#xe940;" glyph-name="police-car" d="M384 864c0 17.673 14.327 32 32 32v0h192c17.673 0 32-14.327 32-32s-14.327-32-32-32v0h-192c-17.673 0-32 14.327-32 32v0zM992 512c0-17.673-14.327-32-32-32v0h-32v-320c0-35.346-28.654-64-64-64v0h-96c-35.346 0-64 28.654-64 64v0 32h-384v-32c0-35.346-28.654-64-64-64v0h-96c-35.346 0-64 28.654-64 64v0 320h-32c-17.673 0-32 14.327-32 32s14.327 32 32 32v0h45.44l109.56 191.76c11.239 19.399 31.9 32.239 55.56 32.24h474.88c23.66-0.001 44.321-12.841 55.396-31.933l0.164-0.307 109.56-191.76h45.44c17.673 0 32-14.327 32-32v0zM352 384c0 17.673-14.327 32-32 32v0h-96c-17.673 0-32-14.327-32-32s14.327-32 32-32v0h96c17.673 0 32 14.327 32 32v0zM832 384c0 17.673-14.327 32-32 32v0h-96c-17.673 0-32-14.327-32-32s14.327-32 32-32v0h96c17.673 0 32 14.327 32 32v0zM840.84 544l-91.4 160h-474.88l-91.4-160z" />
<glyph unicode="&#xe941;" glyph-name="polygon" d="M911.24 751.24c-20.268 20.27-48.27 32.808-79.2 32.808s-58.932-12.538-79.2-32.808v0c-5.94-5.901-11.22-12.453-15.728-19.543l-0.272-0.457-144.84 39.44c-1.456 60.727-51.029 109.398-111.97 109.398-30.945 0-58.959-12.55-79.229-32.838l-0.001-0.001c-20.278-20.27-32.82-48.276-32.82-79.212 0-17.452 3.992-33.972 11.112-48.696l-0.291 0.668-160.48-144.4c-16.619 10.302-36.777 16.407-58.361 16.407-30.93 0-58.931-12.537-79.199-32.807v0c-20.24-20.263-32.757-48.244-32.757-79.149 0-61.856 50.144-112 112-112 25.497 0 49.005 8.52 67.83 22.869l-0.273-0.2 307-225.12c-4.127-11.204-6.514-24.142-6.514-37.638 0-61.856 50.144-112 112-112s112 50.144 112 112c0 30.929-12.537 58.93-32.806 79.198v0c-4.038 4.038-8.387 7.765-13.007 11.142l-0.313 0.218 120.6 341.48q2.76 0 5.52 0c61.842 0.018 111.968 50.155 111.968 112 0 30.91-12.522 58.896-32.769 79.161l0.001-0.001zM645.56 239.8c-1.662 0.088-3.607 0.138-5.564 0.138-25.515 0-49.036-8.532-67.868-22.898l0.272 0.199-306.96 225.12c4.1 11.202 6.471 24.136 6.471 37.623 0 17.441-3.965 33.956-11.044 48.693l0.293-0.676 160.48 144.44c16.617-10.299 36.772-16.402 58.353-16.402 39.959 0 75.031 20.926 94.854 52.418l0.273 0.464 144.88-39.56c0.659-29.946 13.022-56.883 32.679-76.519l0.001-0.001c4.035-4.039 8.37-7.778 12.969-11.18l0.311-0.22z" />
<glyph unicode="&#xe942;" glyph-name="popcorn" d="M918.080 663.16c-5.712 5.381-13.431 8.688-21.921 8.688-2.337 0-4.615-0.25-6.81-0.726l0.211 0.038c-21.332 74.904-89.149 128.831-169.562 128.831-17.093 0-33.616-2.437-49.242-6.981l1.244 0.31c-28.488 61.095-89.388 102.679-160 102.679s-131.512-41.583-159.546-101.597l-0.454-1.081c-14.402 4.247-30.949 6.691-48.066 6.691-80.376 0-148.168-53.878-169.23-127.489l-0.304-1.242c-1.934 0.415-4.156 0.653-6.433 0.653-17.673 0-32-14.327-32-32 0-2.573 0.304-5.074 0.877-7.471l-0.044 0.218 122.24-519.36c6.882-28.488 32.155-49.32 62.294-49.32 0.009 0 0.019 0 0.028 0h461.279c0.008 0 0.017 0 0.026 0 30.138 0 55.411 20.832 62.204 48.883l0.089 0.437 122.2 519.36c0.538 2.196 0.847 4.718 0.847 7.312 0 9.109-3.806 17.329-9.914 23.156l-0.013 0.012zM281.36 128l-109.72 466.24 151.4-43.24 56.4-423zM488.24 664.96l-137.96-55.2-154.28 44.080c13.515 47.756 56.716 82.16 107.952 82.16 19.191 0 37.255-4.827 53.044-13.333l-0.596 0.293c4.343-2.35 9.508-3.731 14.995-3.731 15.225 0 27.966 10.632 31.204 24.876l0.041 0.214c11.543 50.52 56.096 87.646 109.32 87.646s97.777-37.126 109.175-86.893l0.145-0.752c3.279-14.459 16.021-25.091 31.245-25.091 5.487 0 10.652 1.381 15.165 3.814l-0.17-0.084c15.211 8.236 33.299 13.077 52.518 13.077 51.249 0 94.459-34.422 107.771-81.407l0.191-0.789-154.24-44-137.96 55.2c-7.013 2.874-15.152 4.542-23.68 4.542-8.604 0-16.812-1.698-24.306-4.777l0.426 0.155zM742.64 128h-98.080l56.4 423 151.4 43.24z" />
<glyph unicode="&#xe943;" glyph-name="popsicle" d="M512 928c-158.985-0.182-287.818-129.015-288-287.983v-384.017c0-35.346 28.654-64 64-64v0h128v-160c0-53.019 42.981-96 96-96s96 42.981 96 96v0 160h128c35.346 0 64 28.654 64 64v0 384c-0.182 158.985-129.015 287.818-287.983 288h-0.017zM448 352c0-17.673-14.327-32-32-32s-32 14.327-32 32v0 320c0 17.673 14.327 32 32 32s32-14.327 32-32v0zM544 32c0-17.673-14.327-32-32-32s-32 14.327-32 32v0 160h64zM640 352c0-17.673-14.327-32-32-32s-32 14.327-32 32v0 320c0 17.673 14.327 32 32 32s32-14.327 32-32v0z" />
<glyph unicode="&#xe944;" glyph-name="potted-plant" d="M800 384h-306.8l89.64 89.64c30.391-15.637 66.252-24.987 104.254-25.439l0.146-0.001c0.155 0 0.339-0.001 0.523-0.001 38.096 0 73.682 10.746 103.892 29.372l-0.856-0.491c94.88 57.44 145.72 190.4 136 355.68-0.975 16.205-13.875 29.105-29.991 30.076l-0.089 0.004c-165.28 9.72-298.24-41.12-355.72-136-37.4-61.8-38.36-136.44-3.44-208l-57.56-57.56-48.84 48.84c24 53 22.28 108-5.56 153.92-43.48 71.96-143.16 110.32-266.68 103.080-16.175-0.993-29.047-13.865-30.036-29.95l-0.004-0.090c-7.28-123.48 31.12-223.16 103.12-266.68 22.686-14.064 50.205-22.4 79.67-22.4 0.116 0 0.232 0 0.347 0h-0.018c26.937 0.276 52.371 6.426 75.173 17.226l-1.093-0.466 48.68-48.76-32-32h-178.76c-17.673 0-32-14.327-32-32s14.327-32 32-32v0h38.36l52.84-237.88c6.404-28.86 31.781-50.121 62.123-50.121 0.126 0 0.251 0 0.376 0.001h268.661c0.087 0 0.19-0.001 0.293-0.001 30.358 0 55.751 21.256 62.108 49.697l0.080 0.424 52.84 237.88h38.32c17.673 0 32 14.327 32 32s-14.327 32-32 32v0z" />
<glyph unicode="&#xe945;" glyph-name="power" d="M512 864c-229.75 0-416-186.25-416-416s186.25-416 416-416c229.75 0 416 186.25 416 416v0c0 229.75-186.25 416-416 416v0zM480 704c0 17.673 14.327 32 32 32s32-14.327 32-32v0-256c0-17.673-14.327-32-32-32s-32 14.327-32 32v0zM512 128c-0.010 0-0.021 0-0.032 0-176.731 0-320 143.269-320 320 0 110.463 55.971 207.854 141.099 265.359l1.133 0.721c5.14 3.673 11.551 5.873 18.477 5.873 17.673 0 32-14.327 32-32 0-11.32-5.878-21.268-14.749-26.957l-0.128-0.077c-69.017-46.58-113.8-124.497-113.8-212.874 0-141.385 114.615-256 256-256s256 114.615 256 256c0 88.377-44.783 166.294-112.893 212.296l-0.907 0.577c-8.998 5.765-14.877 15.713-14.877 27.033 0 17.673 14.327 32 32 32 6.926 0 13.337-2.2 18.574-5.939l-0.097 0.066c86.262-58.227 142.232-155.617 142.232-266.080 0-176.731-143.269-320-320-320-0.011 0-0.023 0-0.034 0h0.002z" />
<glyph unicode="&#xe946;" glyph-name="prescription" d="M512 480h-128v192h128c53.019 0 96-42.981 96-96s-42.981-96-96-96v0zM896 768v-640c0-35.346-28.654-64-64-64v0h-640c-35.346 0-64 28.654-64 64v0 640c0 35.346 28.654 64 64 64v0h640c35.346 0 64-28.654 64-64v0zM758.64 214.64l-57.4 57.36 57.4 57.36c5.794 5.794 9.378 13.799 9.378 22.64 0 17.683-14.335 32.018-32.018 32.018-8.841 0-16.846-3.584-22.64-9.378l-57.36-57.4-104 104c69.251 18.612 119.392 80.831 119.392 154.761 0 88.152-71.288 159.654-159.359 159.999h-160.033c-17.673 0-32-14.327-32-32v0-448c0-17.673 14.327-32 32-32s32 14.327 32 32v0 160h82.76l144-144-57.4-57.36c-5.794-5.794-9.378-13.799-9.378-22.64 0-17.683 14.335-32.018 32.018-32.018 8.841 0 16.846 3.584 22.64 9.378l57.36 57.4 57.36-57.4c5.794-5.794 13.799-9.378 22.64-9.378 17.683 0 32.018 14.335 32.018 32.018 0 8.841-3.584 16.846-9.378 22.64v0z" />
<glyph unicode="&#xe947;" glyph-name="presentation-chart" d="M864 800h-320v64c0 17.673-14.327 32-32 32s-32-14.327-32-32v0-64h-320c-35.346 0-64-28.654-64-64v0-480c0-35.346 28.654-64 64-64v0h157.44l-86.44-108c-4.371-5.427-7.016-12.405-7.016-20 0-17.682 14.334-32.016 32.016-32.016 10.086 0 19.084 4.664 24.952 11.954l0.048 0.062 118.36 148h225.28l118.36-148c5.916-7.351 14.914-12.016 25-12.016 17.682 0 32.016 14.334 32.016 32.016 0 7.595-2.645 14.573-7.064 20.062l0.048-0.062-86.44 108h157.44c35.346 0 64 28.654 64 64v0 480c0 35.346-28.654 64-64 64v0zM416 384c0-17.673-14.327-32-32-32s-32 14.327-32 32v0 96c0 17.673 14.327 32 32 32s32-14.327 32-32v0zM544 384c0-17.673-14.327-32-32-32s-32 14.327-32 32v0 160c0 17.673 14.327 32 32 32s32-14.327 32-32v0zM672 384c0-17.673-14.327-32-32-32s-32 14.327-32 32v0 224c0 17.673 14.327 32 32 32s32-14.327 32-32v0z" />
<glyph unicode="&#xe948;" glyph-name="presentation" d="M864 800h-320v64c0 17.673-14.327 32-32 32s-32-14.327-32-32v0-64h-320c-35.346 0-64-28.654-64-64v0-480c0-35.346 28.654-64 64-64v0h157.44l-86.44-108c-4.371-5.427-7.016-12.405-7.016-20 0-17.682 14.334-32.016 32.016-32.016 10.086 0 19.084 4.664 24.952 11.954l0.048 0.062 118.36 148h225.28l118.36-148c5.916-7.351 14.914-12.016 25-12.016 17.682 0 32.016 14.334 32.016 32.016 0 7.595-2.645 14.573-7.064 20.062l0.048-0.062-86.44 108h157.44c35.346 0 64 28.654 64 64v0 480c0 35.346-28.654 64-64 64v0z" />
<glyph unicode="&#xe949;" glyph-name="printer" d="M960 576v-320c0-17.673-14.327-32-32-32v0h-128v-128c0-17.673-14.327-32-32-32v0h-512c-17.673 0-32 14.327-32 32v0 128h-128c-17.673 0-32 14.327-32 32v0 320c0 52.92 45.44 96 101.32 96h58.68v128c0 17.673 14.327 32 32 32v0h512c17.673 0 32-14.327 32-32v0-128h58.68c55.88 0 101.32-43.080 101.32-96zM288 672h448v96h-448zM736 320h-448v-192h448zM800 496c0 26.51-21.49 48-48 48s-48-21.49-48-48c0-26.51 21.49-48 48-48v0c26.51 0 48 21.49 48 48v0z" />
<glyph unicode="&#xe94a;" glyph-name="prohibit-inset" d="M512 864c-229.75 0-416-186.25-416-416s186.25-416 416-416c229.75 0 416 186.25 416 416v0c-0.25 229.65-186.35 415.75-415.976 416h-0.024zM662.64 297.36c-5.792-5.798-13.797-9.385-22.64-9.385s-16.848 3.587-22.64 9.385v0l-256 256c-5.794 5.794-9.378 13.799-9.378 22.64 0 17.683 14.335 32.018 32.018 32.018 8.841 0 16.846-3.584 22.64-9.378l256-256c5.798-5.792 9.385-13.797 9.385-22.64s-3.587-16.848-9.385-22.64v0z" />
<glyph unicode="&#xe94b;" glyph-name="prohibit" d="M800 448c0-0.045 0-0.098 0-0.151 0-68.188-23.8-130.818-63.546-180.035l0.426 0.545-404.52 404.52c48.796 39.316 111.54 63.108 179.84 63.108 158.948 0 287.8-128.852 287.8-287.8 0-0.066 0-0.132 0-0.199v0.010zM224 448c0-0.056 0-0.122 0-0.188 0-158.948 128.852-287.8 287.8-287.8 68.3 0 131.044 23.792 180.394 63.54l-0.554-0.432-404.52 404.52c-39.32-48.672-63.12-111.301-63.12-179.489 0-0.053 0-0.106 0-0.159v0.008zM944 448c0-238.587-193.413-432-432-432s-432 193.413-432 432c0 238.587 193.413 432 432 432v0c238.477-0.273 431.727-193.523 432-431.974v-0.026zM864 448c0 194.404-157.596 352-352 352s-352-157.596-352-352c0-194.404 157.596-352 352-352v0c194.313 0.228 351.772 157.687 352 351.978v0.022z" />
<glyph unicode="&#xe94c;" glyph-name="projector-screen-chart" d="M928 704v64c0 35.346-28.654 64-64 64v0h-704c-35.346 0-64-28.654-64-64v0-64c0-35.346 28.654-64 64-64v0-384h-32c-17.673 0-32-14.327-32-32s14.327-32 32-32v0h352v-69.52c-37.605-13.577-64-48.961-64-90.51 0-53.019 42.981-96 96-96s96 42.981 96 96c0 41.549-26.395 76.933-63.332 90.298l-0.668 0.211v69.52h352c17.673 0 32 14.327 32 32s-14.327 32-32 32v0h-32v384c35.346 0 64 28.654 64 64v0zM416 384c0-17.673-14.327-32-32-32s-32 14.327-32 32v0 64c0 17.673 14.327 32 32 32s32-14.327 32-32v0zM512 0c-17.673 0-32 14.327-32 32s14.327 32 32 32c17.673 0 32-14.327 32-32v0c0-17.673-14.327-32-32-32v0zM544 384c0-17.673-14.327-32-32-32s-32 14.327-32 32v0 96c0 17.673 14.327 32 32 32s32-14.327 32-32v0zM672 384c0-17.673-14.327-32-32-32s-32 14.327-32 32v0 128c0 17.673 14.327 32 32 32s32-14.327 32-32v0zM160 704v64h704v-64h-704z" />
<glyph unicode="&#xe94d;" glyph-name="projector-screen" d="M928 704v64c0 35.346-28.654 64-64 64v0h-704c-35.346 0-64-28.654-64-64v0-64c0-35.346 28.654-64 64-64v0-384h-32c-17.673 0-32-14.327-32-32s14.327-32 32-32v0h352v-69.52c-37.605-13.577-64-48.961-64-90.51 0-53.019 42.981-96 96-96s96 42.981 96 96c0 41.549-26.395 76.933-63.332 90.298l-0.668 0.211v69.52h352c17.673 0 32 14.327 32 32s-14.327 32-32 32v0h-32v384c35.346 0 64 28.654 64 64v0zM512 0c-17.673 0-32 14.327-32 32s14.327 32 32 32c17.673 0 32-14.327 32-32v0c0-17.673-14.327-32-32-32v0zM160 768h704v-64h-704z" />
<glyph unicode="&#xe94e;" glyph-name="pulse" d="M864 800h-704c-35.346 0-64-28.654-64-64v0-576c0-35.346 28.654-64 64-64v0h704c35.346 0 64 28.654 64 64v0 576c0 35.346-28.654 64-64 64v0zM832 416h-77.44l-118.56-208c-5.636-9.633-15.931-16-27.713-16-0.031 0-0.061 0-0.092 0h-1.835c-12.374 0.743-22.79 8.412-27.48 19.154l-0.080 0.206-166.8 388.96-96-168.32c-5.636-9.633-15.931-16.001-27.714-16.001-0.101 0-0.201 0-0.302 0.001h-95.985c-17.673 0-32 14.327-32 32s14.327 32 32 32v0h77.44l118.76 208c5.619 9.702 15.952 16.123 27.784 16.123 13.121 0 24.398-7.897 29.336-19.197l0.080-0.206 166.6-389.040 96 168.2c5.636 9.633 15.931 16 27.713 16 0.031 0 0.061 0 0.092 0h95.995c17.673 0 32-14.327 32-32s-14.327-32-32-32v0z" />
<glyph unicode="&#xe94f;" glyph-name="push-pin-simple-slash" d="M317 805.24c-2.579 2.83-4.159 6.611-4.159 10.761 0 8.837 7.163 16 16 16 0.056 0 0.112 0 0.168-0.001h438.991c0.021 0 0.046 0 0.070 0 17.673 0 32-14.327 32-32 0-0.746-0.026-1.486-0.076-2.219l0.005 0.099c-1.486-16.805-15.496-29.884-32.56-29.884-0.183 0-0.365 0.002-0.547 0.004h-24.733l84.64-479.64c0.158-0.844 0.248-1.815 0.248-2.807 0-8.837-7.163-16-16-16-4.691 0-8.91 2.019-11.837 5.234l-0.012 0.013zM855.68 117.52l-640 704c-5.889 6.617-14.429 10.764-23.938 10.764-17.673 0-32-14.327-32-32 0-8.434 3.263-16.106 8.595-21.823l-0.017 0.019 96.64-106.48-67.8-384h-37.16c-17.673 0-32-14.327-32-32s14.327-32 32-32v0h320v-224c0-17.673 14.327-32 32-32s32 14.327 32 32v0 224h128.4l136-149.52c5.889-6.617 14.429-10.764 23.938-10.764 17.673 0 32 14.327 32 32 0 8.434-3.263 16.106-8.595 21.823l0.017-0.019z" />
<glyph unicode="&#xe950;" glyph-name="push-pin-simple" d="M896 256c0-17.673-14.327-32-32-32v0h-320v-224c0-17.673-14.327-32-32-32s-32 14.327-32 32v0 224h-320c-17.673 0-32 14.327-32 32s14.327 32 32 32v0h37.16l84.68 480h-25.84c-17.673 0-32 14.327-32 32s14.327 32 32 32v0h512c17.673 0 32-14.327 32-32s-14.327-32-32-32v0h-25.84l84.68-480h37.16c17.673 0 32-14.327 32-32v0z" />
<glyph unicode="&#xe951;" glyph-name="push-pin-slash" d="M941.32 544l-190.48-191.12c-2.895-2.895-6.895-4.686-11.313-4.686-4.69 0-8.909 2.018-11.835 5.233l-0.012 0.013-295.68 325.48c-2.572 2.829-4.146 6.604-4.146 10.746 0 4.408 1.783 8.4 4.667 11.294l175.48 176.24c11.582 11.585 27.584 18.75 45.26 18.75s33.678-7.166 45.26-18.75l242.76-242.72c11.585-11.582 18.75-27.584 18.75-45.26 0-17.656-7.149-33.642-18.711-45.221l0.001 0.001zM215.68 821.52c-5.872 6.414-14.283 10.421-23.63 10.421-9.74 0-18.464-4.352-24.334-11.217l-0.037-0.044c-4.571-5.583-7.341-12.794-7.341-20.652 0-8.65 3.356-16.516 8.838-22.366l-0.017 0.018 100.12-110.28c-36.24-7.76-76.48-24.88-117.28-57.92-14.623-11.827-23.895-29.769-23.895-49.876 0-17.668 7.159-33.664 18.735-45.245l193.16-193.2-169.8-169.72c-6.136-5.948-9.944-14.267-9.944-23.475 0-7.966 2.85-15.266 7.587-20.937l-0.042 0.052c5.901-6.806 14.561-11.086 24.22-11.086 8.833 0 16.83 3.579 22.621 9.366v0l170.52 170.64 193.16-193.16c11.575-11.622 27.585-18.82 45.276-18.84h0.004c1.52 0 3 0 4.52 0 19.079 1.361 35.679 10.93 46.444 25.16l0.116 0.16c18.064 23.327 33.688 49.948 45.689 78.468l0.871 2.332 87.080-95.8c5.889-6.617 14.429-10.764 23.938-10.764 17.673 0 32 14.327 32 32 0 8.434-3.263 16.106-8.595 21.823l0.017-0.019z" />
<glyph unicode="&#xe952;" glyph-name="push-pin" d="M941.32 544l-213.88-214.6c18.24-50.68 25.8-135.56-52.76-240-10.893-14.449-27.544-24.055-46.478-25.389l-0.202-0.011c-1.52 0-3 0-4.52 0-0.003 0-0.007 0-0.010 0-17.68 0-33.686 7.169-45.269 18.76l-193.040 193.24-170.52-170.64c-5.794-5.794-13.799-9.378-22.64-9.378-17.683 0-32.018 14.335-32.018 32.018 0 8.841 3.584 16.846 9.378 22.64v0l170.64 170.52-193.2 193.2c-11.565 11.579-18.717 27.568-18.717 45.227 0 20.117 9.282 38.066 23.796 49.799l0.121 0.095c101.68 82.040 199 65.92 241.6 52.56l214.4 215.16c11.582 11.585 27.584 18.75 45.26 18.75s33.678-7.166 45.26-18.75l242.76-242.72c11.585-11.582 18.75-27.584 18.75-45.26 0-17.656-7.149-33.642-18.711-45.221l0.001 0.001z" />
<glyph unicode="&#xe953;" glyph-name="puzzle-piece" d="M663.12 64h168.88c35.346 0 64 28.654 64 64v0 150.6c-0.094 17.601-14.385 31.834-32 31.834-4.416 0-8.623-0.895-12.45-2.512l0.21 0.079c-10.547-4.478-22.813-7.080-35.687-7.080-0.026 0-0.051 0-0.077 0h0.004c-52.92 0-96 44.4-96 98.92s43.080 98.92 96 98.92c0.022 0 0.047 0 0.073 0 12.874 0 25.14-2.602 36.301-7.31l-0.614 0.23c3.617-1.539 7.824-2.434 12.24-2.434 17.673 0 32 14.327 32 32 0 0.054 0 0.108 0 0.162v-0.008 150.6c0 35.346-28.654 64-64 64v0h-144.88c0.56 4.728 0.88 10.204 0.88 15.755 0 0.086 0 0.172 0 0.259v-0.013c0 79.529-64.471 144-144 144s-144-64.471-144-144v0c0-0.073 0-0.159 0-0.245 0-5.551 0.32-11.027 0.942-16.411l-0.062 0.656h-144.88c-35.346 0-64-28.654-64-64v0-128.88c-4.728 0.56-10.204 0.88-15.755 0.88-0.086 0-0.172 0-0.259 0h0.013c-79.529 0-144-64.471-144-144s64.471-144 144-144v0c0.073 0 0.159 0 0.245 0 5.551 0 11.027 0.32 16.411 0.942l-0.656-0.062v-128.88c0-35.346 28.654-64 64-64v0h168.88z" />
<glyph unicode="&#xe954;" glyph-name="qr-code" d="M480 736v-192c0-35.346-28.654-64-64-64v0h-192c-35.346 0-64 28.654-64 64v0 192c0 35.346 28.654 64 64 64v0h192c35.346 0 64-28.654 64-64v0zM416 416h-192c-35.346 0-64-28.654-64-64v0-192c0-35.346 28.654-64 64-64v0h192c35.346 0 64 28.654 64 64v0 192c0 35.346-28.654 64-64 64v0zM800 800h-192c-35.346 0-64-28.654-64-64v0-192c0-35.346 28.654-64 64-64v0h192c35.346 0 64 28.654 64 64v0 192c0 35.346-28.654 64-64 64v0zM576 224c17.673 0 32 14.327 32 32v0 128c0 17.673-14.327 32-32 32s-32-14.327-32-32v0-128c0-17.673 14.327-32 32-32v0zM832 352h-96v32c0 17.673-14.327 32-32 32s-32-14.327-32-32v0-224h-96c-17.673 0-32-14.327-32-32s14.327-32 32-32v0h128c17.673 0 32 14.327 32 32v0 160h96c17.673 0 32 14.327 32 32s-14.327 32-32 32v0zM832 224c-17.673 0-32-14.327-32-32v0-64c0-17.673 14.327-32 32-32s32 14.327 32 32v0 64c0 17.673-14.327 32-32 32v0z" />
<glyph unicode="&#xe955;" glyph-name="question-mark" d="M800 864h-576c-35.346 0-64-28.654-64-64v0-704c0-35.346 28.654-64 64-64v0h576c35.346 0 64 28.654 64 64v0 704c0 35.346-28.654 64-64 64v0zM544 386.88v-2.88c0-17.673-14.327-32-32-32s-32 14.327-32 32v0 32c0 17.673 14.327 32 32 32v0c52.92 0 96 36 96 80s-43.080 80-96 80-96-36-96-80v-16c0-17.673-14.327-32-32-32s-32 14.327-32 32v0 16c0 79.4 71.76 144 160 144s160-64.6 160-144c0-69.52-55.080-127.72-128-141.12zM560 240c0-26.51-21.49-48-48-48s-48 21.49-48 48c0 26.51 21.49 48 48 48v0c26.51 0 48-21.49 48-48v0z" />
<glyph unicode="&#xe956;" glyph-name="question" d="M512 864c-229.75 0-416-186.25-416-416s186.25-416 416-416c229.75 0 416 186.25 416 416v0c-0.25 229.65-186.35 415.75-415.976 416h-0.024zM512 192c-26.51 0-48 21.49-48 48s21.49 48 48 48c26.51 0 48-21.49 48-48v0c0-26.51-21.49-48-48-48v0zM544 386.88v-2.88c0-17.673-14.327-32-32-32s-32 14.327-32 32v0 32c0 17.673 14.327 32 32 32v0c52.92 0 96 36 96 80s-43.080 80-96 80-96-36-96-80v-16c0-17.673-14.327-32-32-32s-32 14.327-32 32v0 16c0 79.4 71.76 144 160 144s160-64.6 160-144c0-69.52-55.040-127.72-128-141.12z" />
<glyph unicode="&#xe957;" glyph-name="queue" d="M832 832h-640c-35.346 0-64-28.654-64-64v0-640c0-35.346 28.654-64 64-64v0h640c35.346 0 64 28.654 64 64v0 640c0 35.346-28.654 64-64 64v0zM256 672h512c17.673 0 32-14.327 32-32s-14.327-32-32-32v0h-512c-17.673 0-32 14.327-32 32s14.327 32 32 32v0zM416 224h-160c-17.673 0-32 14.327-32 32s14.327 32 32 32v0h160c17.673 0 32-14.327 32-32s-14.327-32-32-32v0zM416 416h-160c-17.673 0-32 14.327-32 32s14.327 32 32 32v0h160c17.673 0 32-14.327 32-32s-14.327-32-32-32v0zM785.76 325.36l-192-128c-4.983-3.358-11.122-5.36-17.729-5.36-0.011 0-0.022 0-0.033 0h0.002c-17.673 0-32 14.327-32 32v0 256c0 0.006 0 0.013 0 0.021 0 17.673 14.327 32 32 32 6.62 0 12.77-2.010 17.874-5.453l-0.114 0.072 192-128c8.654-5.819 14.271-15.573 14.271-26.64s-5.618-20.821-14.157-26.567l-0.114-0.073z" />
<glyph unicode="&#xe958;" glyph-name="quotes" d="M464 672v-352c-0.114-105.993-86.007-191.886-191.989-192h-0.011c-17.673 0-32 14.327-32 32s14.327 32 32 32v0c70.692 0 128 57.308 128 128v0 32h-240c-35.346 0-64 28.654-64 64v0 256c0 35.346 28.654 64 64 64v0h240c35.346 0 64-28.654 64-64v0zM864 736h-240c-35.346 0-64-28.654-64-64v0-256c0-35.346 28.654-64 64-64v0h240v-32c0-70.692-57.308-128-128-128v0c-17.673 0-32-14.327-32-32s14.327-32 32-32v0c105.993 0.114 191.886 86.007 192 191.989v352.011c0 35.346-28.654 64-64 64v0z" />
<glyph unicode="&#xe959;" glyph-name="rabbit" d="M797.12 360.8c-4.493 31.030-13.292 59.053-25.866 84.899l0.746-1.699c76 151.76 121.8 353.12 69.36 440-15.497 26.495-43.811 44.011-76.217 44.011-0.486 0-0.972-0.004-1.457-0.012l0.073 0.001c-56.48 0-104-47.56-145.76-145.44-24.88-58.48-43.4-125.28-56-178.96-15.033 2.79-32.33 4.386-50 4.386s-34.967-1.596-51.755-4.651l1.755 0.265c-12.52 53.68-31.040 120.48-56 178.96-41.6 97.88-89.28 145.44-145.76 145.44-0.381 0.006-0.83 0.009-1.281 0.009-32.534 0-60.945-17.655-76.174-43.908l-0.226-0.422c-52.44-86.72-6.56-288.080 69.44-439.68-11.786-24.101-20.557-52.070-24.854-81.49l-0.186-1.55c-40.363-38.031-65.495-91.84-65.495-151.52 0-114.884 93.132-208.015 208.015-208.015 55.204 0 105.385 21.504 142.624 56.592l-0.104-0.097-84.48 77.48c-7.067 5.913-11.529 14.735-11.529 24.6 0 17.678 14.331 32.009 32.009 32.009 7.813 0 14.973-2.799 20.53-7.45l-0.050 0.041 43.52-36.2 43.52 36.2c5.507 4.61 12.667 7.409 20.48 7.409 17.678 0 32.009-14.331 32.009-32.009 0-9.865-4.463-18.687-11.479-24.559l-0.050-0.041-84.48-77.48c37.358-36.083 88.296-58.317 144.427-58.317 114.875 0 208 93.125 208 208 0 60.547-25.87 115.052-67.16 153.064l-0.147 0.133zM293.12 506.92c-24.537 52.894-45.077 114.686-58.528 179.081l-0.992 5.679c-13.96 72.52-12.6 132 3.72 158.88 3.989 8.045 12.145 13.478 21.571 13.478 0.475 0 0.946-0.014 1.414-0.041l-0.065 0.003c26.44 0 58.080-38.8 86.88-106.48 23.72-55.76 41.4-120.48 53.32-172-42.728-18.189-78.706-44.879-107.193-78.169l-0.327-0.391zM400 256c-26.51 0-48 21.49-48 48s21.49 48 48 48c26.51 0 48-21.49 48-48v0c0-26.51-21.49-48-48-48v0zM624 256c-26.51 0-48 21.49-48 48s21.49 48 48 48c26.51 0 48-21.49 48-48v0c0-26.51-21.49-48-48-48v0zM706.2 532.68c-23.475 21.489-50.811 39.258-80.766 52.086l-1.874 0.714c12 51.56 29.6 116.28 53.32 172 28.8 67.72 60.44 106.52 86.88 106.52 0.403 0.024 0.875 0.038 1.349 0.038 9.425 0 17.581-5.433 21.508-13.338l0.063-0.14c16.32-26.96 17.68-86.36 3.72-158.88-14.372-70.065-34.847-131.864-61.556-190.213l2.236 5.453c-7.931 9.264-16.060 17.671-24.666 25.566l-0.214 0.194z" />
<glyph unicode="&#xe95a;" glyph-name="racquet" d="M920 855.8c-112 111.72-313.88 91.56-450.4-45-127.16-127.16-153.32-311.080-66.040-425.96l-118.24-118.24-2.72 2.72c-11.584 11.597-27.594 18.77-45.28 18.77s-33.696-7.174-45.279-18.77l-109.281-109.321c-11.597-11.584-18.77-27.594-18.77-45.28s7.174-33.696 18.77-45.279l50.761-50.761c11.582-11.585 27.584-18.75 45.26-18.75s33.678 7.166 45.26 18.75l109.32 109.32c11.585 11.582 18.75 27.584 18.75 45.26s-7.166 33.678-18.75 45.26l-2.76 2.76 118.24 118.24c45.16-34.32 100.96-51.16 160-51.16 90.88 0 189 40 266.16 117.2 136.32 136.56 156.52 338.44 45 450.24zM896.92 544h-96.68v128h128c-0.512-46.784-12.031-90.762-32.081-129.621l0.761 1.621zM544 361.56c-56.989 17.469-100.971 61.451-118.109 117.189l-0.331 1.251h118.44zM416 544c0.52 46.797 12.083 90.776 32.198 129.61l-0.758-1.61h96.56v-128zM608 672h128v-128h-128zM918.68 736h-118.44v118.88c57.083-17.502 101.138-61.557 118.308-117.387l0.332-1.253zM735.4 864h0.64v-128h-128v96.96c37.101 19.261 80.911 30.812 127.359 31.438l0.201 0.002zM544 791.76v-55.52h-55.36c8.593 10.671 17.175 20.217 26.239 29.279l0.001 0.001c9.034 9.045 18.527 17.625 28.443 25.705l0.677 0.535zM608 352.080v127.92h128v-96.64c-37.171-19.301-81.080-30.834-127.632-31.359l-0.168-0.001zM800 424.64v55.36h56c-8.61-10.669-17.192-20.214-26.246-29.286l0.006 0.006c-9.102-8.982-18.724-17.514-28.787-25.517l-0.733-0.563z" />
<glyph unicode="&#xe95b;" glyph-name="radical" d="M832 832h-640c-35.346 0-64-28.654-64-64v0-640c0-35.346 28.654-64 64-64v0h640c35.346 0 64 28.654 64 64v0 640c0 35.346-28.654 64-64 64v0zM832 512c0-17.673-14.327-32-32-32s-32 14.327-32 32v0 32h-266.32l-120-300c-4.843-11.901-16.32-20.137-29.72-20.137s-24.877 8.237-29.643 19.924l-0.077 0.214-128 320c-1.474 3.551-2.33 7.676-2.33 12 0 17.712 14.358 32.070 32.070 32.070 13.387 0 24.859-8.203 29.662-19.857l0.078-0.213 98.28-245.84 98.28 245.84c4.877 11.827 16.317 20 29.665 20 0.019 0 0.039 0 0.058 0h319.997c17.673 0 32-14.327 32-32v0z" />
<glyph unicode="&#xe95c;" glyph-name="radio-button" d="M512 864c-229.75 0-416-186.25-416-416s186.25-416 416-416c229.75 0 416 186.25 416 416v0c-0.25 229.65-186.35 415.75-415.976 416h-0.024zM512 96c-194.404 0-352 157.596-352 352s157.596 352 352 352c194.404 0 352-157.596 352-352v0c-0.228-194.313-157.687-351.772-351.978-352h-0.022zM736 448c0-123.712-100.288-224-224-224s-224 100.288-224 224c0 123.712 100.288 224 224 224v0c123.657-0.137 223.863-100.343 224-223.987v-0.013z" />
<glyph unicode="&#xe95d;" glyph-name="radio" d="M864 704h-517.96l431.16 129.32c13.305 4.084 22.811 16.262 22.811 30.66 0 17.679-14.332 32.011-32.011 32.011-3.281 0-6.447-0.494-9.427-1.411l0.227 0.060-640-192c-13.296-4.083-22.796-16.251-22.8-30.639v-480.001c0-35.346 28.654-64 64-64v0h704c35.346 0 64 28.654 64 64v0 448c0 35.346-28.654 64-64 64v0zM416 256h-160c-17.673 0-32 14.327-32 32s14.327 32 32 32v0h160c17.673 0 32-14.327 32-32s-14.327-32-32-32v0zM416 384h-160c-17.673 0-32 14.327-32 32s14.327 32 32 32v0h160c17.673 0 32-14.327 32-32s-14.327-32-32-32v0zM416 512h-160c-17.673 0-32 14.327-32 32s14.327 32 32 32v0h160c17.673 0 32-14.327 32-32s-14.327-32-32-32v0zM672 288c-70.692 0-128 57.308-128 128s57.308 128 128 128c70.692 0 128-57.308 128-128v0c0-70.692-57.308-128-128-128v0z" />
<glyph unicode="&#xe95e;" glyph-name="radioactive" d="M464 448c0 26.51 21.49 48 48 48s48-21.49 48-48c0-26.51-21.49-48-48-48v0c-26.51 0-48 21.49-48 48v0zM400.88 433.96c-0.551 4.207-0.87 9.081-0.88 14.028v0.012c0 0.008 0 0.018 0 0.028 0 45.865 27.57 85.292 67.041 102.611l0.719 0.281c5.702 2.531 9.608 8.143 9.608 14.668 0 2.934-0.79 5.684-2.169 8.048l0.041-0.076-112.24 194.44c-11.268 19.281-31.866 32.029-55.442 32.029-13.853 0-26.677-4.401-37.152-11.881l0.195 0.132c-97.044-69.033-162.654-176.819-174.196-300.311l-0.124-1.649c-0.164-1.732-0.258-3.745-0.258-5.781 0-16.86 6.435-32.217 16.983-43.749l-0.045 0.049c11.697-12.775 28.428-20.775 47.028-20.84h225.052c8.82 0.022 15.961 7.177 15.961 16 0 0.691-0.044 1.372-0.129 2.039l0.008-0.079zM927.72 486.32c-11.666 125.141-77.276 232.927-173.045 301.098l-1.275 0.862c-10.28 7.348-23.105 11.749-36.958 11.749-23.576 0-44.175-12.748-55.279-31.727l-0.164-0.303-112.24-194.44c-1.338-2.288-2.128-5.038-2.128-7.972 0-6.525 3.905-12.137 9.506-14.627l0.102-0.040c40.19-17.601 67.76-57.027 67.76-102.892 0-0.010 0-0.020 0-0.029v0.002c-0.010-4.959-0.329-9.833-0.94-14.616l0.060 0.576c-0.077-0.589-0.121-1.269-0.121-1.96 0-8.837 7.163-16 16-16 0.042 0 0.085 0 0.127 0h224.873c18.612 0.065 35.343 8.065 46.996 20.792l0.044 0.048c10.503 11.483 16.938 26.84 16.938 43.699 0 2.035-0.094 4.048-0.277 6.036l0.019-0.255zM603.2 354.080c-2.823 4.793-7.958 7.958-13.832 7.958-3.712 0-7.129-1.264-9.843-3.385l0.035 0.027c-18.553-14.15-42.061-22.671-67.56-22.671s-49.007 8.521-67.833 22.871l0.273-0.2c-2.679 2.094-6.096 3.358-9.808 3.358-5.874 0-11.009-3.166-13.792-7.884l-0.041-0.075-111.8-193.72c-5.399-9.185-8.588-20.231-8.588-32.023 0-25.572 14.998-47.642 36.678-57.892l0.389-0.166c51.195-24.17 111.21-38.28 174.52-38.28s123.325 14.11 177.070 39.357l-2.55-1.077c22.069 10.415 37.068 32.485 37.068 58.057 0 11.791-3.189 22.838-8.751 32.324l0.163-0.302z" />
<glyph unicode="&#xe95f;" glyph-name="rainbow-cloud" d="M992 320c-0.114-105.993-86.007-191.886-191.989-192h-192.011c-70.6 0-128 59-128 131.56s57.4 131.56 128 131.56c0.005 0 0.011 0 0.017 0 4.701 0 9.34-0.262 13.905-0.771l-0.561 0.051c28.856 71.835 97.933 121.631 178.64 121.631 106.039 0 192-85.961 192-192 0-0.011 0-0.022 0-0.033v0.002zM448 672c0.209 0 0.457 0.001 0.704 0.001 95.249 0 181.619-38.018 244.763-99.706l-0.067 0.066c5.698-5.319 13.373-8.584 21.81-8.584 17.673 0 32 14.327 32 32 0 8.756-3.516 16.69-9.214 22.468l0.004-0.004c-74.845 72.832-177.177 117.745-290 117.745-229.745 0-415.992-186.241-416-415.985v0-64c0-17.673 14.327-32 32-32s32 14.327 32 32v0 64c0.228 194.313 157.687 351.772 351.978 352h0.022zM448 544c0.182 0.001 0.397 0.001 0.612 0.001 49.65 0 95.499-16.276 132.503-43.783l-0.594 0.422c5.569-4.817 12.882-7.751 20.881-7.751 17.673 0 32 14.327 32 32 0 11.372-5.932 21.358-14.87 27.034l-0.13 0.077c-47.073 34.872-106.29 55.819-170.4 55.819-158.995 0-287.897-128.839-288-287.81v-64.010c0-17.673 14.327-32 32-32s32 14.327 32 32v0 64c0.137 123.657 100.343 223.863 223.987 224h0.013zM508.84 437.16c0.548 2.217 0.863 4.763 0.863 7.382 0 15.056-10.398 27.683-24.404 31.093l-0.219 0.045c-11.137 2.768-23.923 4.356-37.080 4.356-88.366 0-160-71.634-160-160 0-0.013 0-0.025 0-0.038v0.002-64c0-17.673 14.327-32 32-32s32 14.327 32 32v0 64c0 0.006 0 0.014 0 0.021 0 53.019 42.981 96 96 96 7.906 0 15.588-0.956 22.938-2.758l-0.658 0.136c2.229-0.554 4.787-0.872 7.42-0.872 15.059 0 27.689 10.402 31.095 24.413l0.045 0.219z" />
<glyph unicode="&#xe960;" glyph-name="rainbow" d="M512 768c-264.978-0.296-479.705-215.023-480-479.972v-64.028c0-17.673 14.327-32 32-32v0h896c17.673 0 32 14.327 32 32v0 64c-0.296 264.978-215.023 479.705-479.972 480h-0.028zM640 256c-17.673 0-32 14.327-32 32v0c0 53.019-42.981 96-96 96s-96-42.981-96-96v0c0-17.673-14.327-32-32-32s-32 14.327-32 32v0c0 88.366 71.634 160 160 160s160-71.634 160-160v0c0-17.673-14.327-32-32-32v0zM768 256c-17.673 0-32 14.327-32 32v0c0 123.712-100.288 224-224 224s-224-100.288-224-224v0c0-17.673-14.327-32-32-32s-32 14.327-32 32v0c0 159.058 128.942 288 288 288s288-128.942 288-288v0c0-17.673-14.327-32-32-32v0zM896 256c-17.673 0-32 14.327-32 32v0c0 194.404-157.596 352-352 352s-352-157.596-352-352v0c0-17.673-14.327-32-32-32s-32 14.327-32 32v0c0 229.75 186.25 416 416 416s416-186.25 416-416v0c0-17.673-14.327-32-32-32v0z" />
<glyph unicode="&#xe961;" glyph-name="ranking" d="M960 160h-32v224c0 35.346-28.654 64-64 64v0h-160v288c0 35.346-28.654 64-64 64v0h-256c-35.346 0-64-28.654-64-64v0-128h-160c-35.346 0-64-28.654-64-64v0-384h-32c-17.673 0-32-14.327-32-32s14.327-32 32-32v0h896c17.673 0 32 14.327 32 32s-14.327 32-32 32v0zM320 160h-160v384h160zM560 416c0-17.673-14.327-32-32-32s-32 14.327-32 32v0 115.6l-5.88-1.96c-3.020-1.041-6.5-1.642-10.12-1.642-17.674 0-32.002 14.328-32.002 32.002 0 14.054 9.059 25.992 21.657 30.293l0.225 0.067 48 16c3.020 1.041 6.5 1.642 10.12 1.642 17.673 0 32-14.327 32-32 0-0.001 0-0.002 0-0.002v0zM864 160h-160v224h160z" />
<glyph unicode="&#xe962;" glyph-name="read-cv-logo" d="M843.12 803l-521 92c-3.335 0.616-7.172 0.969-11.092 0.969-31.42 0-57.551-22.641-62.969-52.498l-0.059-0.391-119-676c-0.615-3.331-0.966-7.164-0.966-11.078 0-31.447 22.681-57.597 52.577-62.984l0.389-0.058 521-92c3.342-0.619 7.188-0.973 11.117-0.973 31.45 0 57.601 22.685 62.985 52.584l0.058 0.389 119 676c0.605 3.305 0.951 7.109 0.951 10.994 0 31.456-22.694 57.612-52.603 62.988l-0.389 0.058zM542 433.76c-2.738-15.111-15.786-26.423-31.478-26.44h-0.002c-1.979 0.001-3.917 0.175-5.8 0.509l0.2-0.029-166 29.32c-14.092 3.552-24.357 16.114-24.357 31.074 0 17.673 14.327 32 32 32 1.239 0 2.462-0.070 3.664-0.207l-0.147 0.014 165.92-29.16c15.144-2.721 26.486-15.797 26.486-31.521 0-1.964-0.177-3.887-0.516-5.754l0.029 0.195zM730 530.48c-2.736-15.097-15.762-26.403-31.436-26.44h-0.004c-0.018 0-0.039 0-0.060 0-1.973 0-3.903 0.189-5.77 0.551l0.19-0.031-332 58.6c-15.118 2.749-26.43 15.813-26.43 31.52 0 17.679 14.331 32.010 32.010 32.010 1.972 0 3.902-0.178 5.776-0.52l-0.196 0.030 332-58.64c15.163-2.705 26.525-15.789 26.525-31.528 0-1.962-0.177-3.883-0.515-5.747l0.029 0.195zM752.2 656.56c-2.738-15.111-15.786-26.423-31.478-26.44h-0.002c-1.98 0.003-3.918 0.177-5.801 0.509l0.201-0.029-332 58.64c-15.555 2.353-27.341 15.63-27.341 31.659 0 17.673 14.327 32 32 32 2.287 0 4.518-0.24 6.67-0.696l331.791-58.563c15.182-2.688 26.564-15.782 26.564-31.535 0-1.96-0.176-3.878-0.513-5.74l0.029 0.195z" />
<glyph unicode="&#xe963;" glyph-name="receipt-x" d="M864 800h-704c-35.346 0-64-28.654-64-64v0-608c0.010-17.666 14.333-31.983 32-31.983 5.22 0 10.148 1.25 14.502 3.467l-0.182-0.084 113.68 56.84 113.68-56.84c4.172-2.133 9.1-3.383 14.32-3.383s10.148 1.25 14.502 3.467l-0.182-0.084 113.68 56.84 113.68-56.84c4.172-2.133 9.1-3.383 14.32-3.383s10.148 1.25 14.502 3.467l-0.182-0.084 113.68 56.84 113.68-56.84c4.172-2.133 9.1-3.383 14.32-3.383 17.667 0 31.99 14.317 32 31.982v608.001c0 35.346-28.654 64-64 64v0zM630.64 406.64c5.794-5.794 9.378-13.799 9.378-22.64 0-17.683-14.335-32.018-32.018-32.018-8.841 0-16.846 3.584-22.64 9.378l-73.36 73.4-73.36-73.4c-5.794-5.794-13.799-9.378-22.64-9.378-17.683 0-32.018 14.335-32.018 32.018 0 8.841 3.584 16.846 9.378 22.64l73.4 73.36-73.4 73.36c-5.794 5.794-9.378 13.799-9.378 22.64 0 17.683 14.335 32.018 32.018 32.018 8.841 0 16.846-3.584 22.64-9.378l73.36-73.4 73.36 73.4c5.794 5.794 13.799 9.378 22.64 9.378 17.683 0 32.018-14.335 32.018-32.018 0-8.841-3.584-16.846-9.378-22.64l-73.4-73.36z" />
<glyph unicode="&#xe964;" glyph-name="receipt" d="M864 800h-704c-35.346 0-64-28.654-64-64v0-608c0.010-17.666 14.333-31.983 32-31.983 5.22 0 10.148 1.25 14.502 3.467l-0.182-0.084 113.68 56.84 113.68-56.84c4.172-2.133 9.1-3.383 14.32-3.383s10.148 1.25 14.502 3.467l-0.182-0.084 113.68 56.84 113.68-56.84c4.172-2.133 9.1-3.383 14.32-3.383s10.148 1.25 14.502 3.467l-0.182-0.084 113.68 56.84 113.68-56.84c4.172-2.133 9.1-3.383 14.32-3.383 17.667 0 31.99 14.317 32 31.982v608.001c0 35.346-28.654 64-64 64v0zM704 384h-384c-17.673 0-32 14.327-32 32s14.327 32 32 32v0h384c17.673 0 32-14.327 32-32s-14.327-32-32-32v0zM704 512h-384c-17.673 0-32 14.327-32 32s14.327 32 32 32v0h384c17.673 0 32-14.327 32-32s-14.327-32-32-32v0z" />
<glyph unicode="&#xe965;" glyph-name="record" d="M512 864c-229.75 0-416-186.25-416-416s186.25-416 416-416c229.75 0 416 186.25 416 416v0c-0.25 229.65-186.35 415.75-415.976 416h-0.024zM512 96c-194.404 0-352 157.596-352 352s157.596 352 352 352c194.404 0 352-157.596 352-352v0c-0.228-194.313-157.687-351.772-351.978-352h-0.022zM800 448c0-159.058-128.942-288-288-288s-288 128.942-288 288c0 159.058 128.942 288 288 288v0c158.985-0.182 287.818-129.015 288-287.983v-0.017z" />
<glyph unicode="&#xe966;" glyph-name="rectangle-dashed" d="M864 800h-704c-35.346 0-64-28.654-64-64v0-576c0-35.346 28.654-64 64-64v0h704c35.346 0 64 28.654 64 64v0 576c0 35.346-28.654 64-64 64v0zM320 192h-64c-35.346 0-64 28.654-64 64v0 128c0 17.673 14.327 32 32 32s32-14.327 32-32v0-128h64c17.673 0 32-14.327 32-32s-14.327-32-32-32v0zM320 640h-64v-128c0-17.673-14.327-32-32-32s-32 14.327-32 32v0 128c0 35.346 28.654 64 64 64v0h64c17.673 0 32-14.327 32-32s-14.327-32-32-32v0zM576 192h-128c-17.673 0-32 14.327-32 32s14.327 32 32 32v0h128c17.673 0 32-14.327 32-32s-14.327-32-32-32v0zM576 640h-128c-17.673 0-32 14.327-32 32s14.327 32 32 32v0h128c17.673 0 32-14.327 32-32s-14.327-32-32-32v0zM832 256c0-35.346-28.654-64-64-64v0h-64c-17.673 0-32 14.327-32 32s14.327 32 32 32v0h64v128c0 17.673 14.327 32 32 32s32-14.327 32-32v0zM832 512c0-17.673-14.327-32-32-32s-32 14.327-32 32v0 128h-64c-17.673 0-32 14.327-32 32s14.327 32 32 32v0h64c35.346 0 64-28.654 64-64v0z" />
<glyph unicode="&#xe967;" glyph-name="rectangle" d="M928 736v-576c0-35.346-28.654-64-64-64v0h-704c-35.346 0-64 28.654-64 64v0 576c0 35.346 28.654 64 64 64v0h704c35.346 0 64-28.654 64-64v0z" />
</font>
</defs>
</svg>
